<svg width="587" height="42" viewBox="0 0 587 42" fill="none" xmlns="http://www.w3.org/2000/svg">
<mask id="path-1-inside-1_612_9147" fill="white">
<path d="M0 0.110107H587V41.1101H0V0.110107Z"/>
</mask>
<path d="M587 39.999H0V42.2212H587V39.999Z" fill="#E5E5E5" mask="url(#path-1-inside-1_612_9147)"/>
<path d="M18.1445 25.73V15.7085H19.5049L24.7686 23.5767V15.7085H26.04V25.73H24.6797L19.416 17.855V25.73H18.1445ZM27.6602 22.1001C27.6602 20.7557 28.0339 19.7599 28.7812 19.1128C29.4056 18.575 30.1667 18.3062 31.0645 18.3062C32.0625 18.3062 32.8783 18.6343 33.5117 19.2905C34.1452 19.9422 34.4619 20.8446 34.4619 21.9976C34.4619 22.9318 34.3206 23.6678 34.0381 24.2056C33.7601 24.7388 33.3522 25.1535 32.8145 25.4497C32.2812 25.7459 31.6979 25.894 31.0645 25.894C30.0482 25.894 29.2256 25.5682 28.5967 24.9165C27.9723 24.2648 27.6602 23.326 27.6602 22.1001ZM28.9248 22.1001C28.9248 23.0298 29.1276 23.7271 29.5332 24.1919C29.9388 24.6522 30.4492 24.8823 31.0645 24.8823C31.6751 24.8823 32.1833 24.6499 32.5889 24.1851C32.9945 23.7202 33.1973 23.0116 33.1973 22.0591C33.1973 21.1613 32.9922 20.4823 32.582 20.022C32.1764 19.5571 31.6706 19.3247 31.0645 19.3247C30.4492 19.3247 29.9388 19.5549 29.5332 20.0151C29.1276 20.4754 28.9248 21.1704 28.9248 22.1001ZM35.8975 25.73V18.4702H37.0049V19.5708C37.2874 19.0558 37.5472 18.7163 37.7842 18.5522C38.0257 18.3882 38.29 18.3062 38.5771 18.3062C38.9919 18.3062 39.4134 18.4383 39.8418 18.7026L39.418 19.8442C39.1172 19.6665 38.8164 19.5776 38.5156 19.5776C38.2467 19.5776 38.0052 19.6597 37.791 19.8237C37.5768 19.9832 37.4242 20.2065 37.333 20.4937C37.1963 20.9312 37.1279 21.4097 37.1279 21.9292V25.73H35.8975ZM40.5732 25.73V18.4702H41.6738V19.4888C41.9017 19.1333 42.2048 18.8485 42.583 18.6343C42.9613 18.4155 43.3919 18.3062 43.875 18.3062C44.4128 18.3062 44.8525 18.4178 45.1943 18.6411C45.5407 18.8644 45.7845 19.1766 45.9258 19.5776C46.5 18.73 47.2474 18.3062 48.168 18.3062C48.888 18.3062 49.4417 18.5067 49.8291 18.9077C50.2165 19.3042 50.4102 19.9172 50.4102 20.7466V25.73H49.1865V21.1567C49.1865 20.6646 49.1455 20.3114 49.0635 20.0972C48.986 19.8784 48.8424 19.703 48.6328 19.5708C48.4232 19.4386 48.1771 19.3726 47.8945 19.3726C47.3841 19.3726 46.9603 19.5435 46.623 19.8853C46.2858 20.2225 46.1172 20.7648 46.1172 21.5122V25.73H44.8867V21.0132C44.8867 20.4663 44.7865 20.0562 44.5859 19.7827C44.3854 19.5093 44.0573 19.3726 43.6016 19.3726C43.2552 19.3726 42.9339 19.4637 42.6377 19.646C42.346 19.8283 42.1341 20.0949 42.002 20.4458C41.8698 20.7967 41.8037 21.3026 41.8037 21.9634V25.73H40.5732ZM56.9727 24.8345C56.5169 25.2218 56.0771 25.4953 55.6533 25.6548C55.234 25.8143 54.7829 25.894 54.2998 25.894C53.5023 25.894 52.8893 25.7004 52.4609 25.313C52.0326 24.9211 51.8184 24.422 51.8184 23.8159C51.8184 23.4604 51.8981 23.1369 52.0576 22.8452C52.2217 22.549 52.4336 22.312 52.6934 22.1343C52.9577 21.9565 53.2539 21.8221 53.582 21.731C53.8236 21.6672 54.1882 21.6056 54.6758 21.5464C55.6693 21.4279 56.4007 21.2866 56.8701 21.1226C56.8747 20.9539 56.877 20.8468 56.877 20.8013C56.877 20.3 56.7607 19.9468 56.5283 19.7417C56.2139 19.4637 55.7467 19.3247 55.127 19.3247C54.5482 19.3247 54.1198 19.4272 53.8418 19.6323C53.5684 19.8328 53.3656 20.1906 53.2334 20.7056L52.0303 20.5415C52.1396 20.0265 52.3197 19.6118 52.5703 19.2974C52.821 18.9784 53.1833 18.7345 53.6572 18.5659C54.1312 18.3927 54.6803 18.3062 55.3047 18.3062C55.9245 18.3062 56.4281 18.3791 56.8154 18.5249C57.2028 18.6707 57.4876 18.8553 57.6699 19.0786C57.8522 19.2974 57.9798 19.5754 58.0527 19.9126C58.0938 20.1222 58.1143 20.5005 58.1143 21.0474V22.688C58.1143 23.8319 58.1393 24.5565 58.1895 24.8618C58.2441 25.1626 58.349 25.452 58.5039 25.73H57.2188C57.0911 25.4748 57.0091 25.1763 56.9727 24.8345ZM56.8701 22.0864C56.4235 22.2687 55.7536 22.4237 54.8604 22.5513C54.3545 22.6242 53.9967 22.7062 53.7871 22.7974C53.5775 22.8885 53.4157 23.0229 53.3018 23.2007C53.1878 23.3739 53.1309 23.5675 53.1309 23.7817C53.1309 24.1099 53.2539 24.3833 53.5 24.6021C53.7507 24.8208 54.1152 24.9302 54.5938 24.9302C55.0677 24.9302 55.4893 24.8276 55.8584 24.6226C56.2275 24.4129 56.4987 24.1281 56.6719 23.7681C56.804 23.4901 56.8701 23.0799 56.8701 22.5376V22.0864ZM60.001 25.73V15.7085H61.2314V25.73H60.001Z" fill="#262626"/>
<path d="M130.969 15.3823H135.469C135.797 15.3823 136.122 15.4435 136.425 15.5623C136.729 15.6811 137.004 15.8552 137.237 16.0747C137.469 16.2942 137.653 16.5548 137.778 16.8416C137.904 17.1284 137.969 17.4358 137.969 17.7462C137.969 18.0566 137.904 18.364 137.778 18.6508C137.653 18.9376 137.469 19.1982 137.237 19.4177C137.004 19.6372 136.729 19.8114 136.425 19.9302C136.122 20.049 135.797 20.1101 135.469 20.1101H130.969V15.3823Z" stroke="#262626" stroke-width="2.00231" stroke-linecap="round" stroke-linejoin="round"/>
<path d="M130.969 20.1101H136.469C137.132 20.1101 137.768 20.3592 138.237 20.8025C138.705 21.2458 138.969 21.8471 138.969 22.474C138.969 23.1009 138.705 23.7022 138.237 24.1455C137.768 24.5888 137.132 24.8379 136.469 24.8379H130.969V20.1101Z" stroke="#262626" stroke-width="2.00231" stroke-linecap="round" stroke-linejoin="round"/>
<path d="M160.961 15.3823H166.961" stroke="#262626" stroke-width="2.00231" stroke-linecap="round" stroke-linejoin="round"/>
<path d="M158.961 24.8379H164.961" stroke="#262626" stroke-width="2.00231" stroke-linecap="round" stroke-linejoin="round"/>
<path d="M161.961 24.8379L163.961 15.3823" stroke="#262626" stroke-width="2.00231" stroke-linecap="round" stroke-linejoin="round"/>
<path d="M186.949 14.4368V20.1101C186.952 21.1123 187.375 22.0726 188.124 22.7812C188.874 23.4899 189.889 23.8893 190.949 23.8923C192.009 23.8893 193.025 23.4899 193.774 22.7812C194.524 22.0726 194.946 21.1123 194.949 20.1101V14.4368" stroke="#262626" stroke-width="2.00231" stroke-linecap="round" stroke-linejoin="round"/>
<path d="M196.449 25.7834H185.449C185.173 25.7834 184.949 25.9951 184.949 26.2562C184.949 26.5173 185.173 26.729 185.449 26.729H196.449C196.725 26.729 196.949 26.5173 196.949 26.2562C196.949 25.9951 196.725 25.7834 196.449 25.7834Z" fill="#262626"/>
<path d="M216.93 18.219L220.93 22.0012" stroke="#262626" stroke-width="2.00231" stroke-linecap="round" stroke-linejoin="round"/>
<path fill-rule="evenodd" clip-rule="evenodd" d="M218.83 15.9279C219.463 16.4895 219.852 17.2551 219.918 18.0739C219.985 18.8928 219.725 19.7055 219.19 20.3522C218.506 20.86 217.646 21.1071 216.779 21.0448C215.912 20.9825 215.101 20.6153 214.507 20.0156C213.115 18.6918 211.965 17.6517 214.147 15.5875C216.329 13.5234 217.43 14.6117 218.83 15.9279Z" stroke="#262626" stroke-width="2.00231" stroke-linecap="round" stroke-linejoin="round"/>
<path fill-rule="evenodd" clip-rule="evenodd" d="M223.352 20.2047C222.758 19.6055 221.948 19.2382 221.082 19.1752C220.216 19.1122 219.356 19.358 218.673 19.8643C218.137 20.511 217.877 21.3237 217.944 22.1425C218.01 22.9614 218.399 23.727 219.033 24.2886C220.425 25.6048 221.533 26.6922 223.712 24.629C225.891 22.5658 224.744 21.5285 223.352 20.2047Z" stroke="#262626" stroke-width="2.00231" stroke-linecap="round" stroke-linejoin="round"/>
<path d="M259.922 15.3823H267.922" stroke="#262626" stroke-width="2.00231" stroke-linecap="round" stroke-linejoin="round"/>
<path d="M259.922 20.1101H267.922" stroke="#262626" stroke-width="2.00231" stroke-linecap="round" stroke-linejoin="round"/>
<path d="M259.922 24.8379H267.922" stroke="#262626" stroke-width="2.00231" stroke-linecap="round" stroke-linejoin="round"/>
<path d="M255.422 16.8005H257.422" stroke="#262626" stroke-width="1.00116" stroke-linecap="round" stroke-linejoin="round"/>
<path d="M256.422 17.2734C256.289 17.2734 256.162 17.2236 256.068 17.135C255.975 17.0463 255.922 16.926 255.922 16.8007V14.5171L255.646 14.6476C255.527 14.7038 255.39 14.7131 255.264 14.6736C255.138 14.6341 255.034 14.5489 254.975 14.4368C254.851 14.2032 254.952 14.1304 255.199 14.0141L256.199 13.5413C256.275 13.5054 256.36 13.4885 256.445 13.4922C256.53 13.4959 256.612 13.52 256.685 13.5623C256.757 13.6047 256.817 13.6638 256.859 13.7341C256.9 13.8044 256.922 13.8835 256.922 13.964V16.8007C256.922 16.926 256.869 17.0463 256.775 17.135C256.682 17.2236 256.555 17.2734 256.422 17.2734Z" fill="#262626"/>
<path d="M257.422 21.5284H255.422C255.422 21.3072 257.272 20.511 257.272 19.416C257.23 19.2203 257.12 19.0431 256.961 18.9122C256.801 18.7813 256.6 18.7039 256.389 18.692C256.178 18.6802 255.969 18.7345 255.794 18.8466C255.619 18.9588 255.488 19.1224 255.422 19.312" stroke="#262626" stroke-width="1.00116" stroke-linecap="round" stroke-linejoin="round"/>
<path d="M255.422 25.6379C255.488 25.8276 255.619 25.9912 255.794 26.1034C255.969 26.2156 256.178 26.27 256.389 26.2583C256.6 26.2465 256.801 26.1692 256.96 26.0384C257.12 25.9076 257.23 25.7306 257.272 25.5348C257.283 25.3686 257.227 25.2045 257.116 25.0754C257.005 24.9462 256.846 24.8614 256.672 24.8379C256.847 24.8171 257.007 24.7331 257.119 24.6036C257.231 24.474 257.286 24.3087 257.272 24.142C257.23 23.9463 257.12 23.7693 256.96 23.6384C256.801 23.5076 256.6 23.4303 256.389 23.4186C256.178 23.4068 255.969 23.4613 255.794 23.5734C255.619 23.6856 255.488 23.8493 255.422 24.039" stroke="#262626" stroke-width="1.00116" stroke-linecap="round" stroke-linejoin="round"/>
<path d="M286.898 15.3823H295.898" stroke="#262626" stroke-width="2.00231" stroke-linecap="round" stroke-linejoin="round"/>
<path d="M286.898 20.1101H295.898" stroke="#262626" stroke-width="2.00231" stroke-linecap="round" stroke-linejoin="round"/>
<path d="M286.898 24.8379H295.898" stroke="#262626" stroke-width="2.00231" stroke-linecap="round" stroke-linejoin="round"/>
<ellipse cx="283.898" cy="15.3823" rx="1" ry="0.945556" fill="#262626"/>
<ellipse cx="283.898" cy="20.1101" rx="1" ry="0.945556" fill="#262626"/>
<ellipse cx="283.898" cy="24.8379" rx="1" ry="0.945556" fill="#262626"/>
<path d="M328.891 14.4368H336.891" stroke="#262626" stroke-width="2.00231" stroke-linecap="round" stroke-linejoin="round"/>
<path d="M329.891 22.9468L333.241 14.4368" stroke="#262626" stroke-width="2.00231" stroke-linecap="round" stroke-linejoin="round"/>
<path d="M334.891 22.0012L338.891 25.7834" stroke="#262626" stroke-width="2.00231" stroke-linecap="round" stroke-linejoin="round"/>
<path d="M338.891 22.0012L334.891 25.7834" stroke="#262626" stroke-width="2.00231" stroke-linecap="round" stroke-linejoin="round"/>
<path d="M332.391 24.8379H326.391C326.114 24.8379 325.891 25.0496 325.891 25.3107C325.891 25.5718 326.114 25.7834 326.391 25.7834H332.391C332.667 25.7834 332.891 25.5718 332.891 25.3107C332.891 25.0496 332.667 24.8379 332.391 24.8379Z" fill="#262626"/>
</svg>
