<svg width="235" height="56" viewBox="0 0 235 56" fill="none" xmlns="http://www.w3.org/2000/svg">
<rect width="88" height="24" rx="4" fill="#E6E9F4"/>
<path d="M10.6761 7.91193V6.81818H18.3125V7.91193H15.1108V17H13.8778V7.91193H10.6761ZM23.3922 11.3622V12.456H18.9377V11.3622H23.3922ZM31.1839 9.36364C31.1243 8.85985 30.8823 8.46875 30.4581 8.19034C30.0339 7.91193 29.5135 7.77273 28.897 7.77273C28.4463 7.77273 28.0518 7.84564 27.7138 7.99148C27.379 8.13731 27.1172 8.33783 26.9283 8.59304C26.7427 8.84825 26.6499 9.13826 26.6499 9.46307C26.6499 9.73485 26.7145 9.96851 26.8438 10.1641C26.9763 10.3563 27.1454 10.517 27.3509 10.6463C27.5563 10.7723 27.7718 10.8767 27.9972 10.9595C28.2225 11.0391 28.4297 11.1037 28.6186 11.1534L29.6527 11.4318C29.9179 11.5014 30.2128 11.5975 30.5376 11.7202C30.8658 11.8428 31.179 12.0102 31.4773 12.2223C31.7789 12.4311 32.0275 12.6996 32.223 13.0277C32.4186 13.3558 32.5163 13.7585 32.5163 14.2358C32.5163 14.786 32.3722 15.2831 32.0838 15.7273C31.7988 16.1714 31.3812 16.5244 30.831 16.7862C30.2841 17.0481 29.6196 17.179 28.8374 17.179C28.1082 17.179 27.4768 17.0613 26.9432 16.826C26.4129 16.5907 25.9953 16.2625 25.6903 15.8416C25.3887 15.4207 25.218 14.9318 25.1783 14.375H26.451C26.4841 14.7595 26.6134 15.0777 26.8388 15.3295C27.0675 15.5781 27.3558 15.7637 27.7038 15.8864C28.0552 16.0057 28.433 16.0653 28.8374 16.0653C29.308 16.0653 29.7306 15.9891 30.1051 15.8366C30.4796 15.6809 30.7763 15.4654 30.995 15.1903C31.2138 14.9119 31.3232 14.5871 31.3232 14.2159C31.3232 13.8778 31.2287 13.6027 31.0398 13.3906C30.8509 13.1785 30.6023 13.0062 30.294 12.8736C29.9858 12.741 29.6527 12.625 29.2947 12.5256L28.0419 12.1676C27.2464 11.9389 26.6167 11.6125 26.1527 11.1882C25.6887 10.764 25.4567 10.2088 25.4567 9.52273C25.4567 8.95265 25.6108 8.45549 25.919 8.03125C26.2306 7.60369 26.6482 7.27225 27.1719 7.03693C27.6989 6.7983 28.2872 6.67898 28.9368 6.67898C29.593 6.67898 30.1764 6.79664 30.6868 7.03196C31.1972 7.26397 31.6016 7.58215 31.8999 7.98651C32.2015 8.39086 32.3606 8.8499 32.3771 9.36364H31.1839ZM35.5577 12.4062V17H34.3844V6.81818H35.5577V10.5568H35.6571C35.8361 10.1624 36.1046 9.84919 36.4625 9.61719C36.8238 9.38187 37.3044 9.2642 37.9043 9.2642C38.4247 9.2642 38.8804 9.36861 39.2715 9.57741C39.6626 9.78291 39.9659 10.0994 40.1813 10.527C40.4 10.9512 40.5094 11.4915 40.5094 12.1477V17H39.3361V12.2273C39.3361 11.6207 39.1787 11.1518 38.8638 10.8203C38.5523 10.4856 38.1197 10.3182 37.5662 10.3182C37.1818 10.3182 36.8371 10.3994 36.5321 10.5618C36.2305 10.7242 35.9919 10.9612 35.8162 11.2727C35.6439 11.5843 35.5577 11.9621 35.5577 12.4062ZM42.6559 17V9.36364H43.8292V17H42.6559ZM43.2525 8.09091C43.0238 8.09091 42.8266 8.01302 42.6609 7.85724C42.4985 7.70147 42.4173 7.5142 42.4173 7.29545C42.4173 7.0767 42.4985 6.88944 42.6609 6.73366C42.8266 6.57789 43.0238 6.5 43.2525 6.5C43.4812 6.5 43.6767 6.57789 43.8391 6.73366C44.0049 6.88944 44.0877 7.0767 44.0877 7.29545C44.0877 7.5142 44.0049 7.70147 43.8391 7.85724C43.6767 8.01302 43.4812 8.09091 43.2525 8.09091ZM45.9782 17V9.36364H47.1117V10.517H47.1912C47.3304 10.1392 47.5823 9.83262 47.9469 9.5973C48.3115 9.36198 48.7225 9.24432 49.1799 9.24432C49.266 9.24432 49.3738 9.24597 49.503 9.24929C49.6323 9.2526 49.7301 9.25758 49.7963 9.2642V10.4574C49.7566 10.4474 49.6654 10.4325 49.5229 10.4126C49.3837 10.3894 49.2362 10.3778 49.0804 10.3778C48.7092 10.3778 48.3778 10.4557 48.0861 10.6115C47.7978 10.764 47.5691 10.9761 47.4 11.2479C47.2343 11.5163 47.1515 11.8229 47.1515 12.1676V17H45.9782ZM54.9867 9.36364V10.358H51.0293V9.36364H54.9867ZM52.1827 7.53409H53.356V14.8125C53.356 15.1439 53.4041 15.3925 53.5002 15.5582C53.5996 15.7206 53.7256 15.83 53.878 15.8864C54.0338 15.9394 54.1979 15.9659 54.3702 15.9659C54.4995 15.9659 54.6055 15.9593 54.6884 15.946C54.7712 15.9295 54.8375 15.9162 54.8873 15.9062L55.1259 16.9602C55.0463 16.9901 54.9353 17.0199 54.7928 17.0497C54.6503 17.0829 54.4696 17.0994 54.2509 17.0994C53.9194 17.0994 53.5946 17.0282 53.2765 16.8857C52.9616 16.7431 52.6998 16.526 52.4909 16.2344C52.2855 15.9427 52.1827 15.5748 52.1827 15.1307V7.53409Z" fill="#5A607F"/>
<path fill-rule="evenodd" clip-rule="evenodd" d="M74.694 7.30602C75.102 7.71405 75.102 8.37559 74.694 8.78361L71.4783 11.9993L74.694 15.2164C75.102 15.6244 75.102 16.286 74.694 16.694C74.286 17.102 73.6244 17.102 73.2164 16.694L70.0007 13.4769L66.7836 16.694C66.3756 17.102 65.714 17.102 65.306 16.694C64.898 16.286 64.898 15.6244 65.306 15.2164L68.5231 11.9993L65.306 8.78361C64.898 8.37559 64.898 7.71405 65.306 7.30602C65.714 6.89799 66.3756 6.89799 66.7836 7.30602L70.0007 10.5217L73.2164 7.30602C73.6244 6.89799 74.286 6.89799 74.694 7.30602Z" fill="#7E84A3"/>
<rect x="96" width="126" height="24" rx="4" fill="#E6E9F4"/>
<path d="M107.233 6.81818H108.705L112.165 15.2699H112.284L115.744 6.81818H117.216V17H116.062V9.2642H115.963L112.781 17H111.668L108.486 9.2642H108.386V17H107.233V6.81818ZM122.731 17.1591C121.995 17.1591 121.36 16.9967 120.827 16.6719C120.296 16.3438 119.887 15.8864 119.599 15.2997C119.314 14.7098 119.171 14.0237 119.171 13.2415C119.171 12.4593 119.314 11.7699 119.599 11.1733C119.887 10.5734 120.288 10.1061 120.802 9.77131C121.319 9.43324 121.922 9.2642 122.611 9.2642C123.009 9.2642 123.402 9.33049 123.79 9.46307C124.177 9.59564 124.53 9.81108 124.849 10.1094C125.167 10.4044 125.42 10.7955 125.609 11.2827C125.798 11.7699 125.893 12.3698 125.893 13.0824V13.5795H120.006V12.5653H124.699C124.699 12.1345 124.613 11.75 124.441 11.4119C124.272 11.0739 124.03 10.8071 123.715 10.6115C123.403 10.416 123.036 10.3182 122.611 10.3182C122.144 10.3182 121.74 10.4342 121.398 10.6662C121.06 10.8949 120.8 11.1932 120.618 11.5611C120.435 11.929 120.344 12.3234 120.344 12.7443V13.4205C120.344 13.9972 120.444 14.486 120.643 14.8871C120.845 15.2848 121.125 15.5881 121.483 15.7969C121.841 16.0024 122.257 16.1051 122.731 16.1051C123.039 16.1051 123.317 16.062 123.566 15.9759C123.818 15.8864 124.035 15.7538 124.217 15.5781C124.399 15.3991 124.54 15.1771 124.64 14.9119L125.773 15.2301C125.654 15.6146 125.453 15.9527 125.172 16.2443C124.89 16.5327 124.542 16.758 124.128 16.9205C123.713 17.0795 123.248 17.1591 122.731 17.1591ZM128.851 12.4062V17H127.677V9.36364H128.811V10.5568H128.91C129.089 10.169 129.361 9.85748 129.726 9.62216C130.09 9.38352 130.561 9.2642 131.138 9.2642C131.655 9.2642 132.107 9.37027 132.495 9.58239C132.883 9.79119 133.184 10.1094 133.4 10.5369C133.615 10.9612 133.723 11.4981 133.723 12.1477V17H132.55V12.2273C132.55 11.6274 132.394 11.16 132.082 10.8253C131.771 10.4872 131.343 10.3182 130.8 10.3182C130.425 10.3182 130.09 10.3994 129.795 10.5618C129.504 10.7242 129.273 10.9612 129.104 11.2727C128.935 11.5843 128.851 11.9621 128.851 12.4062ZM148.157 10H146.924C146.851 9.64536 146.723 9.33381 146.541 9.06534C146.362 8.79688 146.143 8.5715 145.885 8.3892C145.629 8.2036 145.346 8.06439 145.034 7.97159C144.723 7.87879 144.398 7.83239 144.06 7.83239C143.444 7.83239 142.885 7.98816 142.385 8.29972C141.887 8.61127 141.491 9.07031 141.196 9.67685C140.905 10.2834 140.759 11.0275 140.759 11.9091C140.759 12.7907 140.905 13.5348 141.196 14.1413C141.491 14.7479 141.887 15.2069 142.385 15.5185C142.885 15.83 143.444 15.9858 144.06 15.9858C144.398 15.9858 144.723 15.9394 145.034 15.8466C145.346 15.7538 145.629 15.6162 145.885 15.4339C146.143 15.2483 146.362 15.0213 146.541 14.7528C146.723 14.4811 146.851 14.1695 146.924 13.8182H148.157C148.064 14.3385 147.895 14.8042 147.65 15.2152C147.404 15.6262 147.099 15.9759 146.735 16.2642C146.37 16.5492 145.961 16.7663 145.507 16.9155C145.056 17.0646 144.574 17.1392 144.06 17.1392C143.192 17.1392 142.419 16.9271 141.743 16.5028C141.067 16.0786 140.535 15.4754 140.147 14.6932C139.76 13.911 139.566 12.983 139.566 11.9091C139.566 10.8352 139.76 9.9072 140.147 9.125C140.535 8.3428 141.067 7.73958 141.743 7.31534C142.419 6.8911 143.192 6.67898 144.06 6.67898C144.574 6.67898 145.056 6.75355 145.507 6.9027C145.961 7.05185 146.37 7.2706 146.735 7.55895C147.099 7.84399 147.404 8.192 147.65 8.60298C147.895 9.01065 148.064 9.47633 148.157 10ZM151.163 6.81818V17H149.99V6.81818H151.163ZM156.414 17.1591C155.725 17.1591 155.12 16.995 154.6 16.6669C154.083 16.3388 153.678 15.8797 153.387 15.2898C153.098 14.6998 152.954 14.0104 152.954 13.2216C152.954 12.4261 153.098 11.7318 153.387 11.1385C153.678 10.5452 154.083 10.0845 154.6 9.75639C155.12 9.42827 155.725 9.2642 156.414 9.2642C157.104 9.2642 157.707 9.42827 158.224 9.75639C158.744 10.0845 159.149 10.5452 159.437 11.1385C159.729 11.7318 159.875 12.4261 159.875 13.2216C159.875 14.0104 159.729 14.6998 159.437 15.2898C159.149 15.8797 158.744 16.3388 158.224 16.6669C157.707 16.995 157.104 17.1591 156.414 17.1591ZM156.414 16.1051C156.938 16.1051 157.369 15.9709 157.707 15.7024C158.045 15.4339 158.295 15.081 158.458 14.6435C158.62 14.206 158.701 13.732 158.701 13.2216C158.701 12.7112 158.62 12.2356 158.458 11.7947C158.295 11.3539 158.045 10.9976 157.707 10.7259C157.369 10.4541 156.938 10.3182 156.414 10.3182C155.891 10.3182 155.46 10.4541 155.122 10.7259C154.784 10.9976 154.533 11.3539 154.371 11.7947C154.209 12.2356 154.127 12.7112 154.127 13.2216C154.127 13.732 154.209 14.206 154.371 14.6435C154.533 15.081 154.784 15.4339 155.122 15.7024C155.46 15.9709 155.891 16.1051 156.414 16.1051ZM164.987 9.36364V10.358H161.029V9.36364H164.987ZM162.183 7.53409H163.356V14.8125C163.356 15.1439 163.404 15.3925 163.5 15.5582C163.6 15.7206 163.726 15.83 163.878 15.8864C164.034 15.9394 164.198 15.9659 164.37 15.9659C164.499 15.9659 164.606 15.9593 164.688 15.946C164.771 15.9295 164.838 15.9162 164.887 15.9062L165.126 16.9602C165.046 16.9901 164.935 17.0199 164.793 17.0497C164.65 17.0829 164.47 17.0994 164.251 17.0994C163.919 17.0994 163.595 17.0282 163.276 16.8857C162.962 16.7431 162.7 16.526 162.491 16.2344C162.285 15.9427 162.183 15.5748 162.183 15.1307V7.53409ZM168.089 12.4062V17H166.916V6.81818H168.089V10.5568H168.188C168.367 10.1624 168.636 9.84919 168.994 9.61719C169.355 9.38187 169.836 9.2642 170.436 9.2642C170.956 9.2642 171.412 9.36861 171.803 9.57741C172.194 9.78291 172.497 10.0994 172.713 10.527C172.931 10.9512 173.041 11.4915 173.041 12.1477V17H171.867V12.2273C171.867 11.6207 171.71 11.1518 171.395 10.8203C171.084 10.4856 170.651 10.3182 170.097 10.3182C169.713 10.3182 169.368 10.3994 169.063 10.5618C168.762 10.7242 168.523 10.9612 168.347 11.2727C168.175 11.5843 168.089 11.9621 168.089 12.4062ZM178.389 17.1591C177.653 17.1591 177.018 16.9967 176.485 16.6719C175.954 16.3438 175.545 15.8864 175.257 15.2997C174.972 14.7098 174.829 14.0237 174.829 13.2415C174.829 12.4593 174.972 11.7699 175.257 11.1733C175.545 10.5734 175.946 10.1061 176.46 9.77131C176.977 9.43324 177.58 9.2642 178.27 9.2642C178.667 9.2642 179.06 9.33049 179.448 9.46307C179.836 9.59564 180.189 9.81108 180.507 10.1094C180.825 10.4044 181.078 10.7955 181.267 11.2827C181.456 11.7699 181.551 12.3698 181.551 13.0824V13.5795H175.664V12.5653H180.358C180.358 12.1345 180.271 11.75 180.099 11.4119C179.93 11.0739 179.688 10.8071 179.373 10.6115C179.062 10.416 178.694 10.3182 178.27 10.3182C177.802 10.3182 177.398 10.4342 177.056 10.6662C176.718 10.8949 176.458 11.1932 176.276 11.5611C176.094 11.929 176.002 12.3234 176.002 12.7443V13.4205C176.002 13.9972 176.102 14.486 176.301 14.8871C176.503 15.2848 176.783 15.5881 177.141 15.7969C177.499 16.0024 177.915 16.1051 178.389 16.1051C178.697 16.1051 178.975 16.062 179.224 15.9759C179.476 15.8864 179.693 15.7538 179.875 15.5781C180.058 15.3991 180.199 15.1771 180.298 14.9119L181.431 15.2301C181.312 15.6146 181.112 15.9527 180.83 16.2443C180.548 16.5327 180.2 16.758 179.786 16.9205C179.372 17.0795 178.906 17.1591 178.389 17.1591ZM188.745 11.0739L187.691 11.3722C187.624 11.1965 187.527 11.0258 187.397 10.8601C187.271 10.6911 187.099 10.5518 186.88 10.4425C186.662 10.3331 186.382 10.2784 186.04 10.2784C185.573 10.2784 185.183 10.3861 184.872 10.6016C184.564 10.8137 184.409 11.0838 184.409 11.4119C184.409 11.7036 184.516 11.9339 184.728 12.103C184.94 12.272 185.271 12.4129 185.722 12.5256L186.855 12.804C187.538 12.9697 188.047 13.2232 188.382 13.5646C188.717 13.9027 188.884 14.3385 188.884 14.8722C188.884 15.3097 188.758 15.7008 188.506 16.0455C188.257 16.3902 187.909 16.6619 187.462 16.8608C187.015 17.0597 186.494 17.1591 185.901 17.1591C185.122 17.1591 184.477 16.9901 183.967 16.652C183.457 16.3139 183.133 15.8201 182.998 15.1705L184.111 14.892C184.217 15.303 184.418 15.6113 184.713 15.8168C185.011 16.0223 185.4 16.125 185.881 16.125C186.428 16.125 186.862 16.009 187.184 15.777C187.508 15.5417 187.671 15.2599 187.671 14.9318C187.671 14.6667 187.578 14.4446 187.392 14.2656C187.207 14.0833 186.922 13.9474 186.537 13.858L185.265 13.5597C184.565 13.3939 184.051 13.1371 183.723 12.7891C183.399 12.4377 183.236 11.9986 183.236 11.4716C183.236 11.0407 183.357 10.6596 183.599 10.3281C183.844 9.99669 184.177 9.73651 184.598 9.54758C185.023 9.35866 185.503 9.2642 186.04 9.2642C186.796 9.2642 187.389 9.42992 187.82 9.76136C188.254 10.0928 188.562 10.5303 188.745 11.0739Z" fill="#5A607F"/>
<path fill-rule="evenodd" clip-rule="evenodd" d="M208.694 7.30602C209.102 7.71405 209.102 8.37559 208.694 8.78361L205.478 11.9993L208.694 15.2164C209.102 15.6244 209.102 16.286 208.694 16.694C208.286 17.102 207.624 17.102 207.216 16.694L204.001 13.4769L200.784 16.694C200.376 17.102 199.714 17.102 199.306 16.694C198.898 16.286 198.898 15.6244 199.306 15.2164L202.523 11.9993L199.306 8.78361C198.898 8.37559 198.898 7.71405 199.306 7.30602C199.714 6.89799 200.376 6.89799 200.784 7.30602L204.001 10.5217L207.216 7.30602C207.624 6.89799 208.286 6.89799 208.694 7.30602Z" fill="#7E84A3"/>
<rect y="32" width="167" height="24" rx="4" fill="#E6E9F4"/>
<path d="M16.8011 41.3636C16.7415 40.8598 16.4995 40.4688 16.0753 40.1903C15.651 39.9119 15.1307 39.7727 14.5142 39.7727C14.0634 39.7727 13.669 39.8456 13.331 39.9915C12.9962 40.1373 12.7344 40.3378 12.5455 40.593C12.3598 40.8482 12.267 41.1383 12.267 41.4631C12.267 41.7348 12.3317 41.9685 12.4609 42.1641C12.5935 42.3563 12.7625 42.517 12.968 42.6463C13.1735 42.7723 13.389 42.8767 13.6143 42.9595C13.8397 43.0391 14.0469 43.1037 14.2358 43.1534L15.2699 43.4318C15.535 43.5014 15.83 43.5975 16.1548 43.7202C16.483 43.8428 16.7962 44.0102 17.0945 44.2223C17.3961 44.4311 17.6446 44.6996 17.8402 45.0277C18.0357 45.3558 18.1335 45.7585 18.1335 46.2358C18.1335 46.786 17.9893 47.2831 17.701 47.7273C17.416 48.1714 16.9983 48.5244 16.4482 48.7862C15.9013 49.0481 15.2367 49.179 14.4545 49.179C13.7254 49.179 13.094 49.0613 12.5604 48.826C12.0301 48.5907 11.6125 48.2625 11.3075 47.8416C11.0059 47.4207 10.8352 46.9318 10.7955 46.375H12.0682C12.1013 46.7595 12.2306 47.0777 12.456 47.3295C12.6847 47.5781 12.973 47.7637 13.321 47.8864C13.6723 48.0057 14.0502 48.0653 14.4545 48.0653C14.9252 48.0653 15.3478 47.9891 15.7223 47.8366C16.0968 47.6809 16.3935 47.4654 16.6122 47.1903C16.831 46.9119 16.9403 46.5871 16.9403 46.2159C16.9403 45.8778 16.8459 45.6027 16.657 45.3906C16.468 45.1785 16.2195 45.0062 15.9112 44.8736C15.603 44.741 15.2699 44.625 14.9119 44.5256L13.6591 44.1676C12.8636 43.9389 12.2339 43.6125 11.7699 43.1882C11.3059 42.764 11.0739 42.2088 11.0739 41.5227C11.0739 40.9527 11.228 40.4555 11.5362 40.0312C11.8478 39.6037 12.2654 39.2723 12.7891 39.0369C13.3161 38.7983 13.9044 38.679 14.554 38.679C15.2102 38.679 15.7936 38.7966 16.304 39.032C16.8144 39.264 17.2188 39.5821 17.517 39.9865C17.8187 40.3909 17.9777 40.8499 17.9943 41.3636H16.8011ZM24.8141 45.8778V41.3636H25.9874V49H24.8141V47.7074H24.7346C24.5556 48.0952 24.2772 48.425 23.8993 48.6967C23.5215 48.9652 23.0442 49.0994 22.4675 49.0994C21.9902 49.0994 21.566 48.995 21.1948 48.7862C20.8236 48.5741 20.5319 48.2559 20.3198 47.8317C20.1077 47.4041 20.0016 46.8655 20.0016 46.2159V41.3636H21.1749V46.1364C21.1749 46.6932 21.3307 47.1373 21.6422 47.4688C21.9571 47.8002 22.3581 47.9659 22.8453 47.9659C23.137 47.9659 23.4337 47.8913 23.7353 47.7422C24.0402 47.593 24.2954 47.3643 24.5009 47.0561C24.7097 46.7479 24.8141 46.3551 24.8141 45.8778ZM28.1364 49V41.3636H29.2699V42.5568H29.3693C29.5284 42.1491 29.7853 41.8326 30.1399 41.6072C30.4946 41.3786 30.9205 41.2642 31.4176 41.2642C31.9214 41.2642 32.3407 41.3786 32.6754 41.6072C33.0135 41.8326 33.277 42.1491 33.4659 42.5568H33.5455C33.741 42.1624 34.0343 41.8492 34.4254 41.6172C34.8165 41.3819 35.2855 41.2642 35.8324 41.2642C36.5152 41.2642 37.0736 41.478 37.5078 41.9055C37.942 42.3298 38.1591 42.991 38.1591 43.8892V49H36.9858V43.8892C36.9858 43.3258 36.8317 42.9231 36.5234 42.6811C36.2152 42.4392 35.8523 42.3182 35.4347 42.3182C34.8977 42.3182 34.4818 42.4806 34.1868 42.8054C33.8918 43.1269 33.7443 43.5346 33.7443 44.0284V49H32.5511V43.7699C32.5511 43.3357 32.4103 42.986 32.1286 42.7209C31.8468 42.4524 31.4839 42.3182 31.0398 42.3182C30.7348 42.3182 30.4498 42.3994 30.1847 42.5618C29.9228 42.7242 29.7107 42.9496 29.5483 43.2379C29.3892 43.523 29.3097 43.8527 29.3097 44.2273V49H28.1364ZM40.3043 49V41.3636H41.4379V42.5568H41.5373C41.6964 42.1491 41.9532 41.8326 42.3079 41.6072C42.6625 41.3786 43.0884 41.2642 43.5856 41.2642C44.0894 41.2642 44.5086 41.3786 44.8434 41.6072C45.1815 41.8326 45.445 42.1491 45.6339 42.5568H45.7134C45.909 42.1624 46.2023 41.8492 46.5934 41.6172C46.9845 41.3819 47.4535 41.2642 48.0004 41.2642C48.6831 41.2642 49.2416 41.478 49.6758 41.9055C50.11 42.3298 50.3271 42.991 50.3271 43.8892V49H49.1538V43.8892C49.1538 43.3258 48.9996 42.9231 48.6914 42.6811C48.3832 42.4392 48.0202 42.3182 47.6026 42.3182C47.0657 42.3182 46.6497 42.4806 46.3548 42.8054C46.0598 43.1269 45.9123 43.5346 45.9123 44.0284V49H44.7191V43.7699C44.7191 43.3357 44.5782 42.986 44.2965 42.7209C44.0148 42.4524 43.6519 42.3182 43.2077 42.3182C42.9028 42.3182 42.6178 42.3994 42.3526 42.5618C42.0908 42.7242 41.8787 42.9496 41.7163 43.2379C41.5572 43.523 41.4776 43.8527 41.4776 44.2273V49H40.3043ZM55.674 49.1591C54.9382 49.1591 54.3035 48.9967 53.7699 48.6719C53.2396 48.3438 52.8303 47.8864 52.5419 47.2997C52.2569 46.7098 52.1143 46.0237 52.1143 45.2415C52.1143 44.4593 52.2569 43.7699 52.5419 43.1733C52.8303 42.5734 53.2313 42.1061 53.745 41.7713C54.2621 41.4332 54.8653 41.2642 55.5547 41.2642C55.9524 41.2642 56.3452 41.3305 56.733 41.4631C57.1207 41.5956 57.4737 41.8111 57.7919 42.1094C58.1101 42.4044 58.3636 42.7955 58.5526 43.2827C58.7415 43.7699 58.8359 44.3698 58.8359 45.0824V45.5795H52.9496V44.5653H57.6428C57.6428 44.1345 57.5566 43.75 57.3842 43.4119C57.2152 43.0739 56.9732 42.8071 56.6584 42.6115C56.3468 42.416 55.9789 42.3182 55.5547 42.3182C55.0874 42.3182 54.683 42.4342 54.3416 42.6662C54.0036 42.8949 53.7434 43.1932 53.5611 43.5611C53.3788 43.929 53.2876 44.3234 53.2876 44.7443V45.4205C53.2876 45.9972 53.3871 46.486 53.5859 46.8871C53.7881 47.2848 54.0682 47.5881 54.4261 47.7969C54.7841 48.0024 55.2 48.1051 55.674 48.1051C55.9822 48.1051 56.2607 48.062 56.5092 47.9759C56.7611 47.8864 56.9782 47.7538 57.1605 47.5781C57.3428 47.3991 57.4837 47.1771 57.5831 46.9119L58.7166 47.2301C58.5973 47.6146 58.3968 47.9527 58.1151 48.2443C57.8333 48.5327 57.4853 48.758 57.071 48.9205C56.6567 49.0795 56.1911 49.1591 55.674 49.1591ZM60.6207 49V41.3636H61.7543V42.517H61.8338C61.973 42.1392 62.2249 41.8326 62.5895 41.5973C62.9541 41.362 63.3651 41.2443 63.8224 41.2443C63.9086 41.2443 64.0163 41.246 64.1456 41.2493C64.2749 41.2526 64.3726 41.2576 64.4389 41.2642V42.4574C64.3991 42.4474 64.308 42.4325 64.1655 42.4126C64.0263 42.3894 63.8788 42.3778 63.723 42.3778C63.3518 42.3778 63.0204 42.4557 62.7287 42.6115C62.4403 42.764 62.2116 42.9761 62.0426 43.2479C61.8769 43.5163 61.794 43.8229 61.794 44.1676V49H60.6207ZM78.1195 42H76.8865C76.8136 41.6454 76.686 41.3338 76.5037 41.0653C76.3248 40.7969 76.106 40.5715 75.8475 40.3892C75.5923 40.2036 75.3089 40.0644 74.9973 39.9716C74.6858 39.8788 74.361 39.8324 74.0229 39.8324C73.4064 39.8324 72.848 39.9882 72.3475 40.2997C71.8503 40.6113 71.4542 41.0703 71.1593 41.6768C70.8676 42.2834 70.7218 43.0275 70.7218 43.9091C70.7218 44.7907 70.8676 45.5348 71.1593 46.1413C71.4542 46.7479 71.8503 47.2069 72.3475 47.5185C72.848 47.83 73.4064 47.9858 74.0229 47.9858C74.361 47.9858 74.6858 47.9394 74.9973 47.8466C75.3089 47.7538 75.5923 47.6162 75.8475 47.4339C76.106 47.2483 76.3248 47.0213 76.5037 46.7528C76.686 46.4811 76.8136 46.1695 76.8865 45.8182H78.1195C78.0267 46.3385 77.8577 46.8042 77.6124 47.2152C77.3671 47.6262 77.0622 47.9759 76.6976 48.2642C76.333 48.5492 75.9237 48.7663 75.4696 48.9155C75.0189 49.0646 74.5366 49.1392 74.0229 49.1392C73.1545 49.1392 72.3823 48.9271 71.7061 48.5028C71.03 48.0786 70.498 47.4754 70.1103 46.6932C69.7225 45.911 69.5286 44.983 69.5286 43.9091C69.5286 42.8352 69.7225 41.9072 70.1103 41.125C70.498 40.3428 71.03 39.7396 71.7061 39.3153C72.3823 38.8911 73.1545 38.679 74.0229 38.679C74.5366 38.679 75.0189 38.7536 75.4696 38.9027C75.9237 39.0518 76.333 39.2706 76.6976 39.5589C77.0622 39.844 77.3671 40.192 77.6124 40.603C77.8577 41.0107 78.0267 41.4763 78.1195 42ZM83.055 49.1591C82.3656 49.1591 81.7608 48.995 81.2404 48.6669C80.7234 48.3388 80.319 47.8797 80.0273 47.2898C79.739 46.6998 79.5948 46.0104 79.5948 45.2216C79.5948 44.4261 79.739 43.7318 80.0273 43.1385C80.319 42.5452 80.7234 42.0845 81.2404 41.7564C81.7608 41.4283 82.3656 41.2642 83.055 41.2642C83.7444 41.2642 84.3477 41.4283 84.8647 41.7564C85.3851 42.0845 85.7894 42.5452 86.0778 43.1385C86.3694 43.7318 86.5153 44.4261 86.5153 45.2216C86.5153 46.0104 86.3694 46.6998 86.0778 47.2898C85.7894 47.8797 85.3851 48.3388 84.8647 48.6669C84.3477 48.995 83.7444 49.1591 83.055 49.1591ZM83.055 48.1051C83.5787 48.1051 84.0096 47.9709 84.3477 47.7024C84.6857 47.4339 84.936 47.081 85.0984 46.6435C85.2608 46.206 85.342 45.732 85.342 45.2216C85.342 44.7112 85.2608 44.2356 85.0984 43.7947C84.936 43.3539 84.6857 42.9976 84.3477 42.7259C84.0096 42.4541 83.5787 42.3182 83.055 42.3182C82.5314 42.3182 82.1005 42.4541 81.7624 42.7259C81.4244 42.9976 81.1741 43.3539 81.0117 43.7947C80.8493 44.2356 80.7681 44.7112 80.7681 45.2216C80.7681 45.732 80.8493 46.206 81.0117 46.6435C81.1741 47.081 81.4244 47.4339 81.7624 47.7024C82.1005 47.9709 82.5314 48.1051 83.055 48.1051ZM89.4796 38.8182V49H88.3063V38.8182H89.4796ZM92.8018 38.8182V49H91.6286V38.8182H92.8018ZM98.1525 49.1591C97.4167 49.1591 96.782 48.9967 96.2484 48.6719C95.7181 48.3438 95.3088 47.8864 95.0204 47.2997C94.7354 46.7098 94.5929 46.0237 94.5929 45.2415C94.5929 44.4593 94.7354 43.7699 95.0204 43.1733C95.3088 42.5734 95.7098 42.1061 96.2235 41.7713C96.7406 41.4332 97.3438 41.2642 98.0332 41.2642C98.4309 41.2642 98.8237 41.3305 99.2115 41.4631C99.5993 41.5956 99.9522 41.8111 100.27 42.1094C100.589 42.4044 100.842 42.7955 101.031 43.2827C101.22 43.7699 101.314 44.3698 101.314 45.0824V45.5795H95.4281V44.5653H100.121C100.121 44.1345 100.035 43.75 99.8627 43.4119C99.6937 43.0739 99.4518 42.8071 99.1369 42.6115C98.8253 42.416 98.4574 42.3182 98.0332 42.3182C97.5659 42.3182 97.1615 42.4342 96.8201 42.6662C96.4821 42.8949 96.2219 43.1932 96.0396 43.5611C95.8573 43.929 95.7662 44.3234 95.7662 44.7443V45.4205C95.7662 45.9972 95.8656 46.486 96.0645 46.8871C96.2666 47.2848 96.5467 47.5881 96.9047 47.7969C97.2626 48.0024 97.6786 48.1051 98.1525 48.1051C98.4608 48.1051 98.7392 48.062 98.9877 47.9759C99.2396 47.8864 99.4567 47.7538 99.639 47.5781C99.8213 47.3991 99.9622 47.1771 100.062 46.9119L101.195 47.2301C101.076 47.6146 100.875 47.9527 100.594 48.2443C100.312 48.5327 99.9638 48.758 99.5495 48.9205C99.1352 49.0795 98.6696 49.1591 98.1525 49.1591ZM106.202 49.1591C105.486 49.1591 104.869 48.9901 104.352 48.652C103.835 48.3139 103.437 47.8482 103.159 47.255C102.881 46.6617 102.741 45.9839 102.741 45.2216C102.741 44.446 102.884 43.7616 103.169 43.1683C103.457 42.5717 103.858 42.1061 104.372 41.7713C104.889 41.4332 105.492 41.2642 106.182 41.2642C106.719 41.2642 107.202 41.3636 107.633 41.5625C108.064 41.7614 108.417 42.0398 108.692 42.3977C108.967 42.7557 109.138 43.1733 109.204 43.6506H108.031C107.942 43.3026 107.743 42.9943 107.434 42.7259C107.13 42.4541 106.719 42.3182 106.202 42.3182C105.744 42.3182 105.343 42.4375 104.998 42.6761C104.657 42.9115 104.39 43.2446 104.198 43.6754C104.009 44.103 103.915 44.6051 103.915 45.1818C103.915 45.7718 104.007 46.2855 104.193 46.723C104.382 47.1605 104.647 47.5002 104.988 47.7422C105.333 47.9841 105.738 48.1051 106.202 48.1051C106.506 48.1051 106.783 48.0521 107.032 47.946C107.28 47.84 107.491 47.6875 107.663 47.4886C107.836 47.2898 107.958 47.0511 108.031 46.7727H109.204C109.138 47.2235 108.974 47.6295 108.712 47.9908C108.454 48.3487 108.111 48.6338 107.683 48.8459C107.259 49.0547 106.765 49.1591 106.202 49.1591ZM114.241 41.3636V42.358H110.283V41.3636H114.241ZM111.437 39.5341H112.61V46.8125C112.61 47.1439 112.658 47.3925 112.754 47.5582C112.854 47.7206 112.979 47.83 113.132 47.8864C113.288 47.9394 113.452 47.9659 113.624 47.9659C113.753 47.9659 113.859 47.9593 113.942 47.946C114.025 47.9295 114.091 47.9162 114.141 47.9062L114.38 48.9602C114.3 48.9901 114.189 49.0199 114.047 49.0497C113.904 49.0829 113.724 49.0994 113.505 49.0994C113.173 49.0994 112.849 49.0282 112.53 48.8857C112.215 48.7431 111.954 48.526 111.745 48.2344C111.539 47.9427 111.437 47.5748 111.437 47.1307V39.5341ZM116.006 49V41.3636H117.179V49H116.006ZM116.602 40.0909C116.373 40.0909 116.176 40.013 116.01 39.8572C115.848 39.7015 115.767 39.5142 115.767 39.2955C115.767 39.0767 115.848 38.8894 116.01 38.7337C116.176 38.5779 116.373 38.5 116.602 38.5C116.831 38.5 117.026 38.5779 117.189 38.7337C117.354 38.8894 117.437 39.0767 117.437 39.2955C117.437 39.5142 117.354 39.7015 117.189 39.8572C117.026 40.013 116.831 40.0909 116.602 40.0909ZM122.43 49.1591C121.741 49.1591 121.136 48.995 120.615 48.6669C120.098 48.3388 119.694 47.8797 119.402 47.2898C119.114 46.6998 118.97 46.0104 118.97 45.2216C118.97 44.4261 119.114 43.7318 119.402 43.1385C119.694 42.5452 120.098 42.0845 120.615 41.7564C121.136 41.4283 121.741 41.2642 122.43 41.2642C123.119 41.2642 123.723 41.4283 124.24 41.7564C124.76 42.0845 125.164 42.5452 125.453 43.1385C125.744 43.7318 125.89 44.4261 125.89 45.2216C125.89 46.0104 125.744 46.6998 125.453 47.2898C125.164 47.8797 124.76 48.3388 124.24 48.6669C123.723 48.995 123.119 49.1591 122.43 49.1591ZM122.43 48.1051C122.954 48.1051 123.385 47.9709 123.723 47.7024C124.061 47.4339 124.311 47.081 124.473 46.6435C124.636 46.206 124.717 45.732 124.717 45.2216C124.717 44.7112 124.636 44.2356 124.473 43.7947C124.311 43.3539 124.061 42.9976 123.723 42.7259C123.385 42.4541 122.954 42.3182 122.43 42.3182C121.906 42.3182 121.475 42.4541 121.137 42.7259C120.799 42.9976 120.549 43.3539 120.387 43.7947C120.224 44.2356 120.143 44.7112 120.143 45.2216C120.143 45.732 120.224 46.206 120.387 46.6435C120.549 47.081 120.799 47.4339 121.137 47.7024C121.475 47.9709 121.906 48.1051 122.43 48.1051ZM128.855 44.4062V49H127.681V41.3636H128.815V42.5568H128.914C129.093 42.169 129.365 41.8575 129.73 41.6222C130.094 41.3835 130.565 41.2642 131.142 41.2642C131.659 41.2642 132.111 41.3703 132.499 41.5824C132.887 41.7912 133.188 42.1094 133.404 42.5369C133.619 42.9612 133.727 43.4981 133.727 44.1477V49H132.553V44.2273C132.553 43.6274 132.398 43.16 132.086 42.8253C131.775 42.4872 131.347 42.3182 130.803 42.3182C130.429 42.3182 130.094 42.3994 129.799 42.5618C129.508 42.7242 129.277 42.9612 129.108 43.2727C128.939 43.5843 128.855 43.9621 128.855 44.4062Z" fill="#5A607F"/>
<path fill-rule="evenodd" clip-rule="evenodd" d="M153.694 39.306C154.102 39.714 154.102 40.3756 153.694 40.7836L150.478 43.9993L153.694 47.2164C154.102 47.6244 154.102 48.286 153.694 48.694C153.286 49.102 152.624 49.102 152.216 48.694L149.001 45.4769L145.784 48.694C145.376 49.102 144.714 49.102 144.306 48.694C143.898 48.286 143.898 47.6244 144.306 47.2164L147.523 43.9993L144.306 40.7836C143.898 40.3756 143.898 39.714 144.306 39.306C144.714 38.898 145.376 38.898 145.784 39.306L149.001 42.5217L152.216 39.306C152.624 38.898 153.286 38.898 153.694 39.306Z" fill="#7E84A3"/>
</svg>
