<svg width="467" height="128" viewBox="0 0 467 128" fill="none" xmlns="http://www.w3.org/2000/svg">
<g clip-path="url(#clip0_840_12693)">
<rect x="0.5" y="0.5" width="466" height="127" rx="3.5" fill="white" stroke="#A1A7C4" stroke-dasharray="4 4"/>
<rect x="213" y="19.1099" width="40" height="40" rx="20" fill="#E5E7EB"/>
<g clip-path="url(#clip1_840_12693)">
<path d="M236.41 36.6085L232.974 33.1719L229.537 36.6085" fill="white" fill-opacity="0.01"/>
<path d="M239.161 41.4197V42.2445C239.161 43.3993 239.161 43.9767 238.936 44.4178C238.739 44.8058 238.423 45.1212 238.035 45.3189C237.594 45.5437 237.017 45.5437 235.862 45.5437H230.088C228.934 45.5437 228.356 45.5437 227.915 45.3189C227.527 45.1212 227.212 44.8058 227.014 44.4178C226.789 43.9767 226.789 43.3993 226.789 42.2445V41.4197M236.412 36.6085L232.975 33.1719M232.975 33.1719L229.539 36.6085M232.975 33.1719V41.4197" stroke="black" stroke-width="1.99943" stroke-linecap="round" stroke-linejoin="round"/>
</g>
<path d="M148.571 76.3272H146.977C146.932 76.0658 146.848 75.8343 146.726 75.6326C146.604 75.428 146.452 75.2547 146.27 75.1127C146.088 74.9707 145.881 74.8641 145.648 74.7931C145.418 74.7192 145.169 74.6823 144.902 74.6823C144.428 74.6823 144.007 74.8016 143.641 75.0403C143.274 75.2761 142.987 75.6226 142.78 76.08C142.572 76.5346 142.469 77.09 142.469 77.7462C142.469 78.4138 142.572 78.9763 142.78 79.4337C142.99 79.8883 143.277 80.232 143.641 80.465C144.007 80.6951 144.426 80.8101 144.898 80.8101C145.159 80.8101 145.403 80.7761 145.631 80.7079C145.861 80.6369 146.067 80.5332 146.249 80.3968C146.433 80.2604 146.588 80.0928 146.713 79.894C146.841 79.6951 146.929 79.4678 146.977 79.2121L148.571 79.2207C148.511 79.6354 148.382 80.0246 148.183 80.3883C147.987 80.7519 147.73 81.0729 147.412 81.3513C147.094 81.6269 146.722 81.8428 146.296 81.9991C145.869 82.1525 145.396 82.2292 144.876 82.2292C144.109 82.2292 143.425 82.0516 142.822 81.6965C142.22 81.3414 141.746 80.8286 141.399 80.1582C141.053 79.4877 140.879 78.6837 140.879 77.7462C140.879 76.8059 141.054 76.0019 141.403 75.3343C141.753 74.6638 142.229 74.1511 142.831 73.7959C143.433 73.4408 144.115 73.2633 144.876 73.2633C145.362 73.2633 145.814 73.3315 146.232 73.4678C146.649 73.6042 147.021 73.8045 147.348 74.0687C147.675 74.33 147.943 74.6511 148.153 75.0317C148.367 75.4096 148.506 75.8414 148.571 76.3272ZM151.493 73.3826V82.1099H149.951V73.3826H151.493ZM153.08 82.1099V75.5644H154.622V82.1099H153.08ZM153.855 74.6354C153.611 74.6354 153.401 74.5545 153.224 74.3925C153.048 74.2278 152.96 74.0303 152.96 73.8002C152.96 73.5672 153.048 73.3698 153.224 73.2079C153.401 73.0431 153.611 72.9607 153.855 72.9607C154.102 72.9607 154.313 73.0431 154.486 73.2079C154.662 73.3698 154.75 73.5672 154.75 73.8002C154.75 74.0303 154.662 74.2278 154.486 74.3925C154.313 74.5545 154.102 74.6354 153.855 74.6354ZM159.064 82.2377C158.41 82.2377 157.849 82.0942 157.38 81.8073C156.914 81.5204 156.555 81.1241 156.302 80.6184C156.052 80.1099 155.927 79.5246 155.927 78.8627C155.927 78.1979 156.055 77.6113 156.311 77.1028C156.566 76.5914 156.927 76.1937 157.393 75.9096C157.862 75.6226 158.416 75.4792 159.055 75.4792C159.586 75.4792 160.057 75.5772 160.466 75.7732C160.878 75.9664 161.206 76.2405 161.45 76.5957C161.694 76.9479 161.834 77.3599 161.868 77.8315H160.393C160.334 77.5161 160.191 77.2533 159.967 77.0431C159.745 76.83 159.449 76.7235 159.076 76.7235C158.761 76.7235 158.484 76.8087 158.245 76.9792C158.007 77.1468 157.821 77.3883 157.687 77.7036C157.557 78.019 157.491 78.3968 157.491 78.8371C157.491 79.2832 157.557 79.6667 157.687 79.9877C157.818 80.3059 158.001 80.5516 158.237 80.7249C158.476 80.8954 158.755 80.9806 159.076 80.9806C159.304 80.9806 159.507 80.938 159.686 80.8528C159.868 80.7647 160.02 80.6383 160.142 80.4735C160.264 80.3087 160.348 80.1084 160.393 79.8726H161.868C161.831 80.3357 161.694 80.7462 161.459 81.1042C161.223 81.4593 160.902 81.7377 160.495 81.9394C160.089 82.1383 159.612 82.2377 159.064 82.2377ZM164.541 80.0559L164.536 78.1937H164.783L167.136 75.5644H168.938L166.045 78.786H165.725L164.541 80.0559ZM163.134 82.1099V73.3826H164.677V82.1099H163.134ZM167.242 82.1099L165.112 79.1312L166.151 78.0445L169.087 82.1099H167.242ZM176.211 75.5644V76.7576H172.449V75.5644H176.211ZM173.378 73.9962H174.92V80.1411C174.92 80.3485 174.951 80.5076 175.014 80.6184C175.079 80.7263 175.164 80.8002 175.27 80.84C175.375 80.8797 175.491 80.8996 175.619 80.8996C175.716 80.8996 175.804 80.8925 175.883 80.8783C175.966 80.8641 176.028 80.8513 176.071 80.84L176.331 82.0459C176.248 82.0744 176.13 82.1056 175.977 82.1397C175.826 82.1738 175.642 82.1937 175.423 82.1994C175.037 82.2107 174.689 82.1525 174.379 82.0246C174.069 81.894 173.824 81.6922 173.642 81.4195C173.463 81.1468 173.375 80.8059 173.378 80.3968V73.9962ZM180.286 82.2377C179.647 82.2377 179.093 82.0971 178.624 81.8158C178.156 81.5346 177.792 81.1411 177.533 80.6354C177.278 80.1297 177.15 79.5388 177.15 78.8627C177.15 78.1866 177.278 77.5942 177.533 77.0857C177.792 76.5772 178.156 76.1823 178.624 75.9011C179.093 75.6198 179.647 75.4792 180.286 75.4792C180.925 75.4792 181.479 75.6198 181.948 75.9011C182.417 76.1823 182.779 76.5772 183.035 77.0857C183.293 77.5942 183.423 78.1866 183.423 78.8627C183.423 79.5388 183.293 80.1297 183.035 80.6354C182.779 81.1411 182.417 81.5346 181.948 81.8158C181.479 82.0971 180.925 82.2377 180.286 82.2377ZM180.295 81.0019C180.641 81.0019 180.931 80.9067 181.164 80.7164C181.397 80.5232 181.57 80.2647 181.684 79.9408C181.8 79.617 181.859 79.2562 181.859 78.8584C181.859 78.4579 181.8 78.0957 181.684 77.7718C181.57 77.4451 181.397 77.1851 181.164 76.992C180.931 76.7988 180.641 76.7022 180.295 76.7022C179.94 76.7022 179.644 76.7988 179.408 76.992C179.175 77.1851 179.001 77.4451 178.884 77.7718C178.771 78.0957 178.714 78.4579 178.714 78.8584C178.714 79.2562 178.771 79.617 178.884 79.9408C179.001 80.2647 179.175 80.5232 179.408 80.7164C179.644 80.9067 179.94 81.0019 180.295 81.0019ZM191.88 79.357V75.5644H193.423V82.1099H191.927V80.9465H191.859C191.711 81.313 191.468 81.6127 191.13 81.8457C190.795 82.0786 190.382 82.1951 189.89 82.1951C189.461 82.1951 189.082 82.0999 188.753 81.9096C188.426 81.7164 188.17 81.4366 187.985 81.0701C187.801 80.7008 187.709 80.2547 187.709 79.732V75.5644H189.251V79.4934C189.251 79.9082 189.365 80.2377 189.592 80.482C189.819 80.7263 190.118 80.8485 190.487 80.8485C190.714 80.8485 190.934 80.7931 191.147 80.6823C191.36 80.5715 191.535 80.4067 191.672 80.188C191.811 79.9664 191.88 79.6894 191.88 79.357ZM195.009 84.5644V75.5644H196.526V76.6468H196.616C196.695 76.4877 196.808 76.3187 196.952 76.1397C197.097 75.9579 197.293 75.803 197.541 75.6752C197.788 75.5445 198.103 75.4792 198.487 75.4792C198.992 75.4792 199.448 75.6084 199.854 75.867C200.264 76.1226 200.587 76.5019 200.826 77.0047C201.068 77.5047 201.188 78.1184 201.188 78.8457C201.188 79.5644 201.07 80.1752 200.835 80.678C200.599 81.1809 200.278 81.5644 199.872 81.8286C199.465 82.0928 199.005 82.2249 198.491 82.2249C198.116 82.2249 197.805 82.1624 197.558 82.0374C197.31 81.9124 197.112 81.7619 196.961 81.5857C196.813 81.4067 196.698 81.2377 196.616 81.0786H196.552V84.5644H195.009ZM196.522 78.8371C196.522 79.2604 196.582 79.6312 196.701 79.9494C196.823 80.2675 196.998 80.5161 197.225 80.6951C197.455 80.8712 197.734 80.9593 198.06 80.9593C198.401 80.9593 198.687 80.8684 198.917 80.6866C199.147 80.5019 199.32 80.2505 199.437 79.9323C199.556 79.6113 199.616 79.2462 199.616 78.8371C199.616 78.4309 199.558 78.0701 199.441 77.7547C199.325 77.4394 199.151 77.1922 198.921 77.0133C198.691 76.8343 198.404 76.7448 198.06 76.7448C197.731 76.7448 197.451 76.8315 197.221 77.0047C196.991 77.178 196.816 77.4209 196.697 77.7334C196.58 78.0459 196.522 78.4138 196.522 78.8371ZM204.052 73.3826V82.1099H202.509V73.3826H204.052ZM208.493 82.2377C207.854 82.2377 207.3 82.0971 206.831 81.8158C206.363 81.5346 205.999 81.1411 205.74 80.6354C205.485 80.1297 205.357 79.5388 205.357 78.8627C205.357 78.1866 205.485 77.5942 205.74 77.0857C205.999 76.5772 206.363 76.1823 206.831 75.9011C207.3 75.6198 207.854 75.4792 208.493 75.4792C209.133 75.4792 209.686 75.6198 210.155 75.9011C210.624 76.1823 210.986 76.5772 211.242 77.0857C211.5 77.5942 211.63 78.1866 211.63 78.8627C211.63 79.5388 211.5 80.1297 211.242 80.6354C210.986 81.1411 210.624 81.5346 210.155 81.8158C209.686 82.0971 209.133 82.2377 208.493 82.2377ZM208.502 81.0019C208.848 81.0019 209.138 80.9067 209.371 80.7164C209.604 80.5232 209.777 80.2647 209.891 79.9408C210.008 79.617 210.066 79.2562 210.066 78.8584C210.066 78.4579 210.008 78.0957 209.891 77.7718C209.777 77.4451 209.604 77.1851 209.371 76.992C209.138 76.7988 208.848 76.7022 208.502 76.7022C208.147 76.7022 207.851 76.7988 207.615 76.992C207.383 77.1851 207.208 77.4451 207.091 77.7718C206.978 78.0957 206.921 78.4579 206.921 78.8584C206.921 79.2562 206.978 79.617 207.091 79.9408C207.208 80.2647 207.383 80.5232 207.615 80.7164C207.851 80.9067 208.147 81.0019 208.502 81.0019ZM214.822 82.242C214.408 82.242 214.034 82.1681 213.702 82.0204C213.372 81.8698 213.111 81.6482 212.918 81.3556C212.727 81.063 212.632 80.7022 212.632 80.2732C212.632 79.9039 212.7 79.5985 212.837 79.357C212.973 79.1155 213.159 78.9224 213.395 78.7775C213.631 78.6326 213.896 78.5232 214.192 78.4494C214.49 78.3726 214.798 78.3172 215.117 78.2832C215.5 78.2434 215.811 78.2079 216.05 78.1766C216.288 78.1425 216.462 78.0914 216.57 78.0232C216.68 77.9522 216.736 77.8428 216.736 77.6951V77.6695C216.736 77.3485 216.641 77.0999 216.45 76.9238C216.26 76.7476 215.986 76.6596 215.628 76.6596C215.25 76.6596 214.95 76.742 214.729 76.9067C214.51 77.0715 214.362 77.2661 214.286 77.4905L212.845 77.286C212.959 76.8883 213.146 76.5559 213.408 76.2888C213.669 76.019 213.989 75.8172 214.367 75.6837C214.744 75.5474 215.162 75.4792 215.619 75.4792C215.935 75.4792 216.249 75.5161 216.561 75.59C216.874 75.6638 217.159 75.786 217.418 75.9565C217.676 76.1241 217.884 76.3528 218.04 76.6425C218.199 76.9323 218.278 77.2945 218.278 77.7292V82.1099H216.796V81.2107H216.744C216.651 81.3925 216.519 81.563 216.348 81.7221C216.18 81.8783 215.969 82.0047 215.713 82.1013C215.46 82.1951 215.163 82.242 214.822 82.242ZM215.223 81.1084C215.533 81.1084 215.801 81.0474 216.028 80.9252C216.256 80.8002 216.43 80.6354 216.553 80.4309C216.678 80.2263 216.74 80.0033 216.74 79.7619V78.9905C216.692 79.0303 216.609 79.0672 216.493 79.1013C216.379 79.1354 216.251 79.1653 216.109 79.1908C215.967 79.2164 215.827 79.2391 215.688 79.259C215.548 79.2789 215.428 79.2959 215.325 79.3101C215.095 79.3414 214.889 79.3925 214.707 79.4636C214.526 79.5346 214.382 79.634 214.277 79.7619C214.172 79.8869 214.119 80.0488 214.119 80.2476C214.119 80.5317 214.223 80.7462 214.43 80.8911C214.638 81.036 214.902 81.1084 215.223 81.1084ZM222.259 82.2249C221.744 82.2249 221.284 82.0928 220.878 81.8286C220.472 81.5644 220.151 81.1809 219.915 80.678C219.679 80.1752 219.561 79.5644 219.561 78.8457C219.561 78.1184 219.68 77.5047 219.919 77.0047C220.161 76.5019 220.486 76.1226 220.895 75.867C221.304 75.6084 221.76 75.4792 222.263 75.4792C222.646 75.4792 222.962 75.5445 223.209 75.6752C223.456 75.803 223.652 75.9579 223.797 76.1397C223.942 76.3187 224.054 76.4877 224.134 76.6468H224.197V73.3826H225.744V82.1099H224.227V81.0786H224.134C224.054 81.2377 223.939 81.4067 223.788 81.5857C223.638 81.7619 223.439 81.9124 223.192 82.0374C222.945 82.1624 222.634 82.2249 222.259 82.2249ZM222.689 80.9593C223.016 80.9593 223.294 80.8712 223.524 80.6951C223.754 80.5161 223.929 80.2675 224.048 79.9494C224.168 79.6312 224.227 79.2604 224.227 78.8371C224.227 78.4138 224.168 78.0459 224.048 77.7334C223.932 77.4209 223.759 77.178 223.528 77.0047C223.301 76.8315 223.021 76.7448 222.689 76.7448C222.345 76.7448 222.058 76.8343 221.828 77.0133C221.598 77.1922 221.425 77.4394 221.308 77.7547C221.192 78.0701 221.134 78.4309 221.134 78.8371C221.134 79.2462 221.192 79.6113 221.308 79.9323C221.428 80.2505 221.602 80.5019 221.832 80.6866C222.065 80.8684 222.351 80.9593 222.689 80.9593ZM233.22 82.2377C232.581 82.2377 232.027 82.0971 231.558 81.8158C231.089 81.5346 230.726 81.1411 230.467 80.6354C230.211 80.1297 230.084 79.5388 230.084 78.8627C230.084 78.1866 230.211 77.5942 230.467 77.0857C230.726 76.5772 231.089 76.1823 231.558 75.9011C232.027 75.6198 232.581 75.4792 233.22 75.4792C233.859 75.4792 234.413 75.6198 234.882 75.9011C235.351 76.1823 235.713 76.5772 235.968 77.0857C236.227 77.5942 236.356 78.1866 236.356 78.8627C236.356 79.5388 236.227 80.1297 235.968 80.6354C235.713 81.1411 235.351 81.5346 234.882 81.8158C234.413 82.0971 233.859 82.2377 233.22 82.2377ZM233.228 81.0019C233.575 81.0019 233.865 80.9067 234.098 80.7164C234.331 80.5232 234.504 80.2647 234.618 79.9408C234.734 79.617 234.792 79.2562 234.792 78.8584C234.792 78.4579 234.734 78.0957 234.618 77.7718C234.504 77.4451 234.331 77.1851 234.098 76.992C233.865 76.7988 233.575 76.7022 233.228 76.7022C232.873 76.7022 232.578 76.7988 232.342 76.992C232.109 77.1851 231.934 77.4451 231.818 77.7718C231.704 78.0957 231.647 78.4579 231.647 78.8584C231.647 79.2562 231.704 79.617 231.818 79.9408C231.934 80.2647 232.109 80.5232 232.342 80.7164C232.578 80.9067 232.873 81.0019 233.228 81.0019ZM237.666 82.1099V75.5644H239.161V76.6553H239.229C239.349 76.2775 239.553 75.9863 239.843 75.7817C240.136 75.5744 240.47 75.4707 240.845 75.4707C240.93 75.4707 241.025 75.4749 241.13 75.4834C241.238 75.4891 241.327 75.4991 241.398 75.5133V76.9323C241.333 76.9096 241.229 76.8897 241.087 76.8726C240.948 76.8528 240.813 76.8428 240.683 76.8428C240.401 76.8428 240.148 76.9039 239.924 77.0261C239.702 77.1454 239.528 77.3116 239.4 77.5246C239.272 77.7377 239.208 77.9834 239.208 78.2619V82.1099H237.666ZM247.829 82.2249C247.315 82.2249 246.854 82.0928 246.448 81.8286C246.042 81.5644 245.721 81.1809 245.485 80.678C245.249 80.1752 245.131 79.5644 245.131 78.8457C245.131 78.1184 245.251 77.5047 245.489 77.0047C245.731 76.5019 246.056 76.1226 246.465 75.867C246.874 75.6084 247.33 75.4792 247.833 75.4792C248.217 75.4792 248.532 75.5445 248.779 75.6752C249.026 75.803 249.222 75.9579 249.367 76.1397C249.512 76.3187 249.624 76.4877 249.704 76.6468H249.768V73.3826H251.315V82.1099H249.798V81.0786H249.704C249.624 81.2377 249.509 81.4067 249.359 81.5857C249.208 81.7619 249.009 81.9124 248.762 82.0374C248.515 82.1624 248.204 82.2249 247.829 82.2249ZM248.259 80.9593C248.586 80.9593 248.864 80.8712 249.095 80.6951C249.325 80.5161 249.499 80.2675 249.619 79.9494C249.738 79.6312 249.798 79.2604 249.798 78.8371C249.798 78.4138 249.738 78.0459 249.619 77.7334C249.502 77.4209 249.329 77.178 249.099 77.0047C248.872 76.8315 248.592 76.7448 248.259 76.7448C247.916 76.7448 247.629 76.8343 247.398 77.0133C247.168 77.1922 246.995 77.4394 246.879 77.7547C246.762 78.0701 246.704 78.4309 246.704 78.8371C246.704 79.2462 246.762 79.6113 246.879 79.9323C246.998 80.2505 247.173 80.5019 247.403 80.6866C247.636 80.8684 247.921 80.9593 248.259 80.9593ZM252.959 82.1099V75.5644H254.454V76.6553H254.522C254.642 76.2775 254.846 75.9863 255.136 75.7817C255.429 75.5744 255.762 75.4707 256.137 75.4707C256.223 75.4707 256.318 75.4749 256.423 75.4834C256.531 75.4891 256.62 75.4991 256.691 75.5133V76.9323C256.626 76.9096 256.522 76.8897 256.38 76.8726C256.241 76.8528 256.106 76.8428 255.976 76.8428C255.694 76.8428 255.441 76.9039 255.217 77.0261C254.995 77.1454 254.821 77.3116 254.693 77.5246C254.565 77.7377 254.501 77.9834 254.501 78.2619V82.1099H252.959ZM259.483 82.242C259.068 82.242 258.694 82.1681 258.362 82.0204C258.032 81.8698 257.771 81.6482 257.578 81.3556C257.387 81.063 257.292 80.7022 257.292 80.2732C257.292 79.9039 257.36 79.5985 257.497 79.357C257.633 79.1155 257.819 78.9224 258.055 78.7775C258.291 78.6326 258.557 78.5232 258.852 78.4494C259.15 78.3726 259.459 78.3172 259.777 78.2832C260.16 78.2434 260.471 78.2079 260.71 78.1766C260.949 78.1425 261.122 78.0914 261.23 78.0232C261.341 77.9522 261.396 77.8428 261.396 77.6951V77.6695C261.396 77.3485 261.301 77.0999 261.11 76.9238C260.92 76.7476 260.646 76.6596 260.288 76.6596C259.91 76.6596 259.61 76.742 259.389 76.9067C259.17 77.0715 259.022 77.2661 258.946 77.4905L257.505 77.286C257.619 76.8883 257.807 76.5559 258.068 76.2888C258.329 76.019 258.649 75.8172 259.027 75.6837C259.405 75.5474 259.822 75.4792 260.28 75.4792C260.595 75.4792 260.909 75.5161 261.221 75.59C261.534 75.6638 261.819 75.786 262.078 75.9565C262.336 76.1241 262.544 76.3528 262.7 76.6425C262.859 76.9323 262.939 77.2945 262.939 77.7292V82.1099H261.456V81.2107H261.405C261.311 81.3925 261.179 81.563 261.008 81.7221C260.841 81.8783 260.629 82.0047 260.373 82.1013C260.12 82.1951 259.824 82.242 259.483 82.242ZM259.883 81.1084C260.193 81.1084 260.461 81.0474 260.689 80.9252C260.916 80.8002 261.091 80.6354 261.213 80.4309C261.338 80.2263 261.4 80.0033 261.4 79.7619V78.9905C261.352 79.0303 261.27 79.0672 261.153 79.1013C261.039 79.1354 260.912 79.1653 260.77 79.1908C260.628 79.2164 260.487 79.2391 260.348 79.259C260.209 79.2789 260.088 79.2959 259.985 79.3101C259.755 79.3414 259.549 79.3925 259.368 79.4636C259.186 79.5346 259.042 79.634 258.937 79.7619C258.832 79.8869 258.78 80.0488 258.78 80.2476C258.78 80.5317 258.883 80.7462 259.091 80.8911C259.298 81.036 259.562 81.1084 259.883 81.1084ZM267.336 84.7008C266.782 84.7008 266.307 84.6255 265.909 84.4749C265.511 84.3272 265.191 84.1283 264.95 83.8783C264.709 83.6283 264.541 83.3513 264.447 83.0474L265.836 82.7107C265.899 82.8386 265.99 82.965 266.109 83.09C266.228 83.2178 266.389 83.3229 266.591 83.4053C266.795 83.4905 267.052 83.5332 267.362 83.5332C267.799 83.5332 268.162 83.4266 268.449 83.2136C268.735 83.0033 268.879 82.6567 268.879 82.1738V80.9337H268.802C268.723 81.0928 268.606 81.2562 268.453 81.4238C268.302 81.5914 268.102 81.732 267.852 81.8457C267.605 81.9593 267.294 82.0161 266.919 82.0161C266.416 82.0161 265.96 81.8982 265.551 81.6624C265.145 81.4238 264.821 81.0687 264.579 80.5971C264.341 80.1226 264.221 79.5289 264.221 78.8158C264.221 78.0971 264.341 77.4905 264.579 76.9962C264.821 76.4991 265.146 76.1226 265.555 75.867C265.964 75.6084 266.42 75.4792 266.923 75.4792C267.307 75.4792 267.622 75.5445 267.869 75.6752C268.119 75.803 268.318 75.9579 268.466 76.1397C268.613 76.3187 268.726 76.4877 268.802 76.6468H268.887V75.5644H270.409V82.2164C270.409 82.7761 270.275 83.2391 270.008 83.6056C269.741 83.9721 269.376 84.2462 268.913 84.428C268.45 84.6099 267.924 84.7008 267.336 84.7008ZM267.349 80.8059C267.676 80.8059 267.954 80.7263 268.184 80.5672C268.414 80.4082 268.589 80.1795 268.709 79.8812C268.828 79.5829 268.887 79.2249 268.887 78.8073C268.887 78.3954 268.828 78.0346 268.709 77.7249C268.592 77.4153 268.419 77.1752 268.189 77.0047C267.961 76.8315 267.682 76.7448 267.349 76.7448C267.005 76.7448 266.718 76.8343 266.488 77.0133C266.258 77.1922 266.085 77.438 265.968 77.7505C265.852 78.0601 265.794 78.4124 265.794 78.8073C265.794 79.2079 265.852 79.5587 265.968 79.8599C266.088 80.1582 266.262 80.3911 266.493 80.5587C266.726 80.7235 267.011 80.8059 267.349 80.8059ZM276.85 82.242C276.435 82.242 276.061 82.1681 275.729 82.0204C275.4 81.8698 275.138 81.6482 274.945 81.3556C274.755 81.063 274.66 80.7022 274.66 80.2732C274.66 79.9039 274.728 79.5985 274.864 79.357C275 79.1155 275.186 78.9224 275.422 78.7775C275.658 78.6326 275.924 78.5232 276.219 78.4494C276.517 78.3726 276.826 78.3172 277.144 78.2832C277.527 78.2434 277.838 78.2079 278.077 78.1766C278.316 78.1425 278.489 78.0914 278.597 78.0232C278.708 77.9522 278.763 77.8428 278.763 77.6951V77.6695C278.763 77.3485 278.668 77.0999 278.478 76.9238C278.287 76.7476 278.013 76.6596 277.655 76.6596C277.277 76.6596 276.978 76.742 276.756 76.9067C276.537 77.0715 276.39 77.2661 276.313 77.4905L274.873 77.286C274.986 76.8883 275.174 76.5559 275.435 76.2888C275.696 76.019 276.016 75.8172 276.394 75.6837C276.772 75.5474 277.189 75.4792 277.647 75.4792C277.962 75.4792 278.276 75.5161 278.588 75.59C278.901 75.6638 279.186 75.786 279.445 75.9565C279.704 76.1241 279.911 76.3528 280.067 76.6425C280.226 76.9323 280.306 77.2945 280.306 77.7292V82.1099H278.823V81.2107H278.772C278.678 81.3925 278.546 81.563 278.375 81.7221C278.208 81.8783 277.996 82.0047 277.74 82.1013C277.488 82.1951 277.191 82.242 276.85 82.242ZM277.25 81.1084C277.56 81.1084 277.829 81.0474 278.056 80.9252C278.283 80.8002 278.458 80.6354 278.58 80.4309C278.705 80.2263 278.767 80.0033 278.767 79.7619V78.9905C278.719 79.0303 278.637 79.0672 278.52 79.1013C278.407 79.1354 278.279 79.1653 278.137 79.1908C277.995 79.2164 277.854 79.2391 277.715 79.259C277.576 79.2789 277.455 79.2959 277.353 79.3101C277.123 79.3414 276.917 79.3925 276.735 79.4636C276.553 79.5346 276.41 79.634 276.304 79.7619C276.199 79.8869 276.147 80.0488 276.147 80.2476C276.147 80.5317 276.25 80.7462 276.458 80.8911C276.665 81.036 276.929 81.1084 277.25 81.1084ZM283.4 78.2746V82.1099H281.857V75.5644H283.331V76.6766H283.408C283.559 76.3101 283.799 76.019 284.128 75.803C284.461 75.5871 284.871 75.4792 285.36 75.4792C285.811 75.4792 286.205 75.5758 286.54 75.769C286.878 75.9621 287.14 76.242 287.324 76.6084C287.512 76.9749 287.604 77.4195 287.601 77.9422V82.1099H286.059V78.1809C286.059 77.7434 285.945 77.4011 285.718 77.1539C285.493 76.9067 285.182 76.7832 284.785 76.7832C284.515 76.7832 284.275 76.8428 284.064 76.9621C283.857 77.0786 283.694 77.2476 283.574 77.4692C283.458 77.6908 283.4 77.9593 283.4 78.2746ZM291.598 82.2249C291.084 82.2249 290.624 82.0928 290.218 81.8286C289.811 81.5644 289.49 81.1809 289.255 80.678C289.019 80.1752 288.901 79.5644 288.901 78.8457C288.901 78.1184 289.02 77.5047 289.259 77.0047C289.5 76.5019 289.826 76.1226 290.235 75.867C290.644 75.6084 291.1 75.4792 291.603 75.4792C291.986 75.4792 292.302 75.5445 292.549 75.6752C292.796 75.803 292.992 75.9579 293.137 76.1397C293.282 76.3187 293.394 76.4877 293.473 76.6468H293.537V73.3826H295.084V82.1099H293.567V81.0786H293.473C293.394 81.2377 293.279 81.4067 293.128 81.5857C292.978 81.7619 292.779 81.9124 292.532 82.0374C292.285 82.1624 291.973 82.2249 291.598 82.2249ZM292.029 80.9593C292.356 80.9593 292.634 80.8712 292.864 80.6951C293.094 80.5161 293.269 80.2675 293.388 79.9494C293.508 79.6312 293.567 79.2604 293.567 78.8371C293.567 78.4138 293.508 78.0459 293.388 77.7334C293.272 77.4209 293.098 77.178 292.868 77.0047C292.641 76.8315 292.361 76.7448 292.029 76.7448C291.685 76.7448 291.398 76.8343 291.168 77.0133C290.938 77.1922 290.765 77.4394 290.648 77.7547C290.532 78.0701 290.473 78.4309 290.473 78.8371C290.473 79.2462 290.532 79.6113 290.648 79.9323C290.767 80.2505 290.942 80.5019 291.172 80.6866C291.405 80.8684 291.691 80.9593 292.029 80.9593ZM302.134 82.2249C301.619 82.2249 301.159 82.0928 300.753 81.8286C300.347 81.5644 300.026 81.1809 299.79 80.678C299.554 80.1752 299.436 79.5644 299.436 78.8457C299.436 78.1184 299.555 77.5047 299.794 77.0047C300.036 76.5019 300.361 76.1226 300.77 75.867C301.179 75.6084 301.635 75.4792 302.138 75.4792C302.521 75.4792 302.837 75.5445 303.084 75.6752C303.331 75.803 303.527 75.9579 303.672 76.1397C303.817 76.3187 303.929 76.4877 304.009 76.6468H304.072V73.3826H305.619V82.1099H304.102V81.0786H304.009C303.929 81.2377 303.814 81.4067 303.663 81.5857C303.513 81.7619 303.314 81.9124 303.067 82.0374C302.82 82.1624 302.509 82.2249 302.134 82.2249ZM302.564 80.9593C302.891 80.9593 303.169 80.8712 303.399 80.6951C303.629 80.5161 303.804 80.2675 303.923 79.9494C304.043 79.6312 304.102 79.2604 304.102 78.8371C304.102 78.4138 304.043 78.0459 303.923 77.7334C303.807 77.4209 303.634 77.178 303.403 77.0047C303.176 76.8315 302.896 76.7448 302.564 76.7448C302.22 76.7448 301.933 76.8343 301.703 77.0133C301.473 77.1922 301.3 77.4394 301.183 77.7547C301.067 78.0701 301.009 78.4309 301.009 78.8371C301.009 79.2462 301.067 79.6113 301.183 79.9323C301.303 80.2505 301.477 80.5019 301.707 80.6866C301.94 80.8684 302.226 80.9593 302.564 80.9593ZM307.263 82.1099V75.5644H308.759V76.6553H308.827C308.946 76.2775 309.151 75.9863 309.441 75.7817C309.733 75.5744 310.067 75.4707 310.442 75.4707C310.527 75.4707 310.623 75.4749 310.728 75.4834C310.836 75.4891 310.925 75.4991 310.996 75.5133V76.9323C310.931 76.9096 310.827 76.8897 310.685 76.8726C310.546 76.8528 310.411 76.8428 310.28 76.8428C309.999 76.8428 309.746 76.9039 309.522 77.0261C309.3 77.1454 309.125 77.3116 308.998 77.5246C308.87 77.7377 308.806 77.9834 308.806 78.2619V82.1099H307.263ZM314.607 82.2377C313.967 82.2377 313.413 82.0971 312.945 81.8158C312.476 81.5346 312.112 81.1411 311.854 80.6354C311.598 80.1297 311.47 79.5388 311.47 78.8627C311.47 78.1866 311.598 77.5942 311.854 77.0857C312.112 76.5772 312.476 76.1823 312.945 75.9011C313.413 75.6198 313.967 75.4792 314.607 75.4792C315.246 75.4792 315.8 75.6198 316.269 75.9011C316.737 76.1823 317.099 76.5772 317.355 77.0857C317.614 77.5942 317.743 78.1866 317.743 78.8627C317.743 79.5388 317.614 80.1297 317.355 80.6354C317.099 81.1411 316.737 81.5346 316.269 81.8158C315.8 82.0971 315.246 82.2377 314.607 82.2377ZM314.615 81.0019C314.962 81.0019 315.251 80.9067 315.484 80.7164C315.717 80.5232 315.891 80.2647 316.004 79.9408C316.121 79.617 316.179 79.2562 316.179 78.8584C316.179 78.4579 316.121 78.0957 316.004 77.7718C315.891 77.4451 315.717 77.1851 315.484 76.992C315.251 76.7988 314.962 76.7022 314.615 76.7022C314.26 76.7022 313.965 76.7988 313.729 76.992C313.496 77.1851 313.321 77.4451 313.205 77.7718C313.091 78.0957 313.034 78.4579 313.034 78.8584C313.034 79.2562 313.091 79.617 313.205 79.9408C313.321 80.2647 313.496 80.5232 313.729 80.7164C313.965 80.9067 314.26 81.0019 314.615 81.0019ZM319.052 84.5644V75.5644H320.569V76.6468H320.659C320.738 76.4877 320.851 76.3187 320.995 76.1397C321.14 75.9579 321.336 75.803 321.584 75.6752C321.831 75.5445 322.146 75.4792 322.53 75.4792C323.035 75.4792 323.491 75.6084 323.897 75.867C324.307 76.1226 324.63 76.5019 324.869 77.0047C325.11 77.5047 325.231 78.1184 325.231 78.8457C325.231 79.5644 325.113 80.1752 324.878 80.678C324.642 81.1809 324.321 81.5644 323.914 81.8286C323.508 82.0928 323.048 82.2249 322.534 82.2249C322.159 82.2249 321.848 82.1624 321.601 82.0374C321.353 81.9124 321.155 81.7619 321.004 81.5857C320.856 81.4067 320.741 81.2377 320.659 81.0786H320.595V84.5644H319.052ZM320.565 78.8371C320.565 79.2604 320.625 79.6312 320.744 79.9494C320.866 80.2675 321.041 80.5161 321.268 80.6951C321.498 80.8712 321.777 80.9593 322.103 80.9593C322.444 80.9593 322.73 80.8684 322.96 80.6866C323.19 80.5019 323.363 80.2505 323.48 79.9323C323.599 79.6113 323.659 79.2462 323.659 78.8371C323.659 78.4309 323.601 78.0701 323.484 77.7547C323.368 77.4394 323.194 77.1922 322.964 77.0133C322.734 76.8343 322.447 76.7448 322.103 76.7448C321.774 76.7448 321.494 76.8315 321.264 77.0047C321.034 77.178 320.859 77.4209 320.74 77.7334C320.623 78.0459 320.565 78.4138 320.565 78.8371Z" fill="#111927"/>
<path d="M140.24 84.4962H226.601V85.3144H140.24V84.4962Z" fill="#111927"/>
<path d="M131.78 100.583C131.78 99.6885 131.896 98.8658 132.128 98.1153C132.362 97.3625 132.696 96.67 133.129 96.0379H133.868C133.698 96.2723 133.538 96.5611 133.389 96.9044C133.242 97.2453 133.113 97.6205 133.002 98.0301C132.89 98.4373 132.803 98.8587 132.739 99.2943C132.677 99.7299 132.647 100.16 132.647 100.583C132.647 101.147 132.701 101.719 132.81 102.299C132.919 102.879 133.066 103.417 133.25 103.914C133.435 104.411 133.641 104.816 133.868 105.129H133.129C132.696 104.497 132.362 103.805 132.128 103.055C131.896 102.302 131.78 101.478 131.78 100.583ZM139.196 98.7652C139.153 98.4053 138.98 98.126 138.677 97.9271C138.374 97.7282 138.003 97.6288 137.562 97.6288C137.24 97.6288 136.959 97.6809 136.717 97.7851C136.478 97.8892 136.291 98.0325 136.156 98.2148C136.023 98.397 135.957 98.6042 135.957 98.8362C135.957 99.0303 136.003 99.1972 136.096 99.3369C136.19 99.4742 136.311 99.589 136.458 99.6814C136.605 99.7713 136.758 99.8459 136.919 99.9051C137.08 99.9619 137.228 100.008 137.363 100.044L138.102 100.242C138.291 100.292 138.502 100.361 138.734 100.448C138.968 100.536 139.192 100.656 139.405 100.807C139.621 100.956 139.798 101.148 139.938 101.382C140.078 101.617 140.147 101.904 140.147 102.245C140.147 102.638 140.044 102.993 139.838 103.311C139.635 103.628 139.337 103.88 138.944 104.067C138.553 104.254 138.078 104.348 137.52 104.348C136.999 104.348 136.548 104.264 136.167 104.095C135.788 103.927 135.49 103.693 135.272 103.392C135.056 103.092 134.934 102.742 134.906 102.345H135.815C135.839 102.619 135.931 102.847 136.092 103.027C136.255 103.204 136.461 103.337 136.71 103.424C136.961 103.509 137.231 103.552 137.52 103.552C137.856 103.552 138.158 103.498 138.425 103.389C138.693 103.277 138.905 103.124 139.061 102.927C139.217 102.728 139.295 102.496 139.295 102.231C139.295 101.99 139.228 101.793 139.093 101.642C138.958 101.49 138.78 101.367 138.56 101.272C138.34 101.178 138.102 101.095 137.846 101.024L136.951 100.768C136.383 100.605 135.933 100.371 135.602 100.068C135.271 99.7654 135.105 99.3689 135.105 98.8788C135.105 98.4716 135.215 98.1165 135.435 97.8135C135.658 97.5081 135.956 97.2713 136.33 97.1032C136.706 96.9328 137.127 96.8476 137.591 96.8476C138.059 96.8476 138.476 96.9316 138.841 97.0997C139.205 97.2654 139.494 97.4927 139.707 97.7815C139.923 98.0703 140.036 98.3982 140.048 98.7652H139.196ZM141.894 96.947L144.053 103.069H144.138L146.297 96.947H147.22L144.55 104.22H143.641L140.97 96.947H141.894ZM152.983 99.2197C152.905 98.9806 152.802 98.7664 152.674 98.577C152.549 98.3852 152.398 98.2219 152.223 98.0869C152.05 97.952 151.854 97.849 151.634 97.778C151.413 97.7069 151.172 97.6714 150.909 97.6714C150.478 97.6714 150.086 97.7827 149.734 98.0052C149.381 98.2278 149.1 98.5557 148.892 98.9889C148.684 99.4221 148.58 99.9536 148.58 100.583C148.58 101.213 148.685 101.745 148.896 102.178C149.106 102.611 149.392 102.939 149.751 103.161C150.111 103.384 150.516 103.495 150.966 103.495C151.383 103.495 151.75 103.407 152.067 103.229C152.386 103.049 152.635 102.796 152.813 102.469C152.992 102.14 153.082 101.753 153.082 101.308L153.352 101.365H151.165V100.583H153.935V101.365C153.935 101.964 153.807 102.484 153.551 102.927C153.298 103.37 152.947 103.713 152.5 103.957C152.055 104.198 151.544 104.319 150.966 104.319C150.322 104.319 149.756 104.168 149.269 103.865C148.783 103.562 148.404 103.131 148.132 102.572C147.862 102.013 147.727 101.35 147.727 100.583C147.727 100.008 147.804 99.4908 147.958 99.0315C148.114 98.5699 148.335 98.1769 148.619 97.8525C148.903 97.5282 149.239 97.2796 149.627 97.1068C150.015 96.934 150.443 96.8476 150.909 96.8476C151.293 96.8476 151.65 96.9056 151.982 97.0216C152.315 97.1352 152.613 97.2974 152.873 97.5081C153.136 97.7164 153.355 97.9662 153.53 98.2574C153.705 98.5462 153.826 98.867 153.892 99.2197H152.983ZM156.579 103.225L156.523 103.609C156.482 103.879 156.421 104.168 156.338 104.475C156.257 104.783 156.173 105.073 156.086 105.345C155.998 105.618 155.926 105.834 155.869 105.995H155.23C155.261 105.844 155.301 105.644 155.351 105.395C155.4 105.147 155.45 104.868 155.5 104.561C155.552 104.255 155.595 103.943 155.628 103.623L155.67 103.225H156.579ZM163.842 96.947H164.723V102.146C164.723 102.61 164.638 103.004 164.467 103.328C164.297 103.653 164.057 103.899 163.747 104.067C163.436 104.235 163.071 104.319 162.649 104.319C162.251 104.319 161.898 104.247 161.587 104.103C161.277 103.956 161.033 103.747 160.856 103.478C160.678 103.208 160.59 102.887 160.59 102.515H161.456C161.456 102.721 161.507 102.901 161.609 103.055C161.713 103.206 161.855 103.325 162.035 103.41C162.215 103.495 162.42 103.538 162.649 103.538C162.903 103.538 163.118 103.485 163.296 103.378C163.473 103.272 163.608 103.115 163.7 102.909C163.795 102.701 163.842 102.447 163.842 102.146V96.947ZM166.488 104.22V96.947H168.945C169.516 96.947 169.982 97.05 170.345 97.2559C170.709 97.4595 170.979 97.7354 171.154 98.0834C171.329 98.4314 171.417 98.8196 171.417 99.2481C171.417 99.6766 171.329 100.066 171.154 100.416C170.981 100.767 170.714 101.046 170.352 101.255C169.989 101.46 169.525 101.563 168.96 101.563H167.198V100.782H168.931C169.322 100.782 169.635 100.715 169.872 100.58C170.109 100.445 170.281 100.263 170.387 100.033C170.496 99.8009 170.55 99.5393 170.55 99.2481C170.55 98.9569 170.496 98.6965 170.387 98.4669C170.281 98.2372 170.108 98.0573 169.869 97.9271C169.63 97.7945 169.312 97.7282 168.917 97.7282H167.369V104.22H166.488ZM177.807 99.2197C177.729 98.9806 177.626 98.7664 177.498 98.577C177.373 98.3852 177.222 98.2219 177.047 98.0869C176.874 97.952 176.678 97.849 176.458 97.778C176.238 97.7069 175.996 97.6714 175.733 97.6714C175.302 97.6714 174.911 97.7827 174.558 98.0052C174.205 98.2278 173.925 98.5557 173.716 98.9889C173.508 99.4221 173.404 99.9536 173.404 100.583C173.404 101.213 173.509 101.745 173.72 102.178C173.931 102.611 174.216 102.939 174.576 103.161C174.936 103.384 175.34 103.495 175.79 103.495C176.207 103.495 176.574 103.407 176.891 103.229C177.211 103.049 177.459 102.796 177.637 102.469C177.817 102.14 177.907 101.753 177.907 101.308L178.177 101.365H175.989V100.583H178.759V101.365C178.759 101.964 178.631 102.484 178.375 102.927C178.122 103.37 177.772 103.713 177.324 103.957C176.879 104.198 176.368 104.319 175.79 104.319C175.146 104.319 174.58 104.168 174.093 103.865C173.607 103.562 173.229 103.131 172.956 102.572C172.686 102.013 172.552 101.35 172.552 100.583C172.552 100.008 172.628 99.4908 172.782 99.0315C172.939 98.5699 173.159 98.1769 173.443 97.8525C173.727 97.5282 174.063 97.2796 174.451 97.1068C174.84 96.934 175.267 96.8476 175.733 96.8476C176.117 96.8476 176.474 96.9056 176.806 97.0216C177.14 97.1352 177.437 97.2974 177.697 97.5081C177.96 97.7164 178.179 97.9662 178.354 98.2574C178.529 98.5462 178.65 98.867 178.716 99.2197H177.807ZM181.404 103.225L181.347 103.609C181.307 103.879 181.245 104.168 181.162 104.475C181.082 104.783 180.998 105.073 180.91 105.345C180.822 105.618 180.75 105.834 180.693 105.995H180.054C180.085 105.844 180.125 105.644 180.175 105.395C180.225 105.147 180.274 104.868 180.324 104.561C180.376 104.255 180.419 103.943 180.452 103.623L180.495 103.225H181.404ZM185.883 104.22V96.947H188.34C188.91 96.947 189.377 97.05 189.739 97.2559C190.104 97.4595 190.374 97.7354 190.549 98.0834C190.724 98.4314 190.811 98.8196 190.811 99.2481C190.811 99.6766 190.724 100.066 190.549 100.416C190.376 100.767 190.108 101.046 189.746 101.255C189.384 101.46 188.92 101.563 188.354 101.563H186.593V100.782H188.326C188.716 100.782 189.03 100.715 189.267 100.58C189.503 100.445 189.675 100.263 189.782 100.033C189.891 99.8009 189.945 99.5393 189.945 99.2481C189.945 98.9569 189.891 98.6965 189.782 98.4669C189.675 98.2372 189.502 98.0573 189.263 97.9271C189.024 97.7945 188.707 97.7282 188.311 97.7282H186.763V104.22H185.883ZM197.997 96.947V104.22H197.145L193.182 98.5095H193.111V104.22H192.23V96.947H193.082L197.06 102.671H197.131V96.947H197.997ZM204.731 99.2197C204.653 98.9806 204.55 98.7664 204.422 98.577C204.297 98.3852 204.146 98.2219 203.971 98.0869C203.798 97.952 203.602 97.849 203.382 97.778C203.161 97.7069 202.92 97.6714 202.657 97.6714C202.226 97.6714 201.835 97.7827 201.482 98.0052C201.129 98.2278 200.848 98.5557 200.64 98.9889C200.432 99.4221 200.328 99.9536 200.328 100.583C200.328 101.213 200.433 101.745 200.644 102.178C200.854 102.611 201.14 102.939 201.5 103.161C201.859 103.384 202.264 103.495 202.714 103.495C203.131 103.495 203.498 103.407 203.815 103.229C204.134 103.049 204.383 102.796 204.561 102.469C204.741 102.14 204.83 101.753 204.83 101.308L205.1 101.365H202.913V100.583H205.683V101.365C205.683 101.964 205.555 102.484 205.299 102.927C205.046 103.37 204.696 103.713 204.248 103.957C203.803 104.198 203.292 104.319 202.714 104.319C202.07 104.319 201.504 104.168 201.017 103.865C200.531 103.562 200.152 103.131 199.88 102.572C199.61 102.013 199.475 101.35 199.475 100.583C199.475 100.008 199.552 99.4908 199.706 99.0315C199.862 98.5699 200.083 98.1769 200.367 97.8525C200.651 97.5282 200.987 97.2796 201.375 97.1068C201.763 96.934 202.191 96.8476 202.657 96.8476C203.041 96.8476 203.398 96.9056 203.73 97.0216C204.063 97.1352 204.361 97.2974 204.621 97.5081C204.884 97.7164 205.103 97.9662 205.278 98.2574C205.453 98.5462 205.574 98.867 205.64 99.2197H204.731ZM208.327 103.225L208.271 103.609C208.23 103.879 208.169 104.168 208.086 104.475C208.006 104.783 207.921 105.073 207.834 105.345C207.746 105.618 207.674 105.834 207.617 105.995H206.978C207.009 105.844 207.049 105.644 207.099 105.395C207.148 105.147 207.198 104.868 207.248 104.561C207.3 104.255 207.343 103.943 207.376 103.623L207.418 103.225H208.327ZM214.909 104.333C214.416 104.333 213.984 104.216 213.612 103.982C213.243 103.747 212.954 103.42 212.746 102.998C212.54 102.577 212.437 102.084 212.437 101.521C212.437 100.953 212.54 100.457 212.746 100.033C212.954 99.6092 213.243 99.2801 213.612 99.0457C213.984 98.8113 214.416 98.6942 214.909 98.6942C215.401 98.6942 215.832 98.8113 216.201 99.0457C216.573 99.2801 216.862 99.6092 217.068 100.033C217.276 100.457 217.38 100.953 217.38 101.521C217.38 102.084 217.276 102.577 217.068 102.998C216.862 103.42 216.573 103.747 216.201 103.982C215.832 104.216 215.401 104.333 214.909 104.333ZM214.909 103.581C215.283 103.581 215.59 103.485 215.832 103.293C216.073 103.101 216.252 102.849 216.368 102.536C216.484 102.224 216.542 101.885 216.542 101.521C216.542 101.156 216.484 100.817 216.368 100.502C216.252 100.187 216.073 99.9323 215.832 99.7382C215.59 99.5441 215.283 99.447 214.909 99.447C214.535 99.447 214.227 99.5441 213.985 99.7382C213.744 99.9323 213.565 100.187 213.449 100.502C213.333 100.817 213.275 101.156 213.275 101.521C213.275 101.885 213.333 102.224 213.449 102.536C213.565 102.849 213.744 103.101 213.985 103.293C214.227 103.485 214.535 103.581 214.909 103.581ZM218.66 104.22V98.7652H219.469V99.589H219.526C219.625 99.3192 219.805 99.1002 220.066 98.9321C220.326 98.764 220.62 98.68 220.946 98.68C221.008 98.68 221.085 98.6811 221.177 98.6835C221.27 98.6859 221.339 98.6894 221.387 98.6942V99.5464C221.358 99.5393 221.293 99.5287 221.191 99.5145C221.092 99.4979 220.987 99.4896 220.875 99.4896C220.61 99.4896 220.374 99.5452 220.165 99.6565C219.959 99.7654 219.796 99.9169 219.675 100.111C219.557 100.303 219.498 100.522 219.498 100.768V104.22H218.66ZM227.394 106.379C226.99 106.379 226.642 106.327 226.35 106.223C226.059 106.121 225.817 105.986 225.622 105.818C225.431 105.652 225.278 105.474 225.164 105.285L225.832 104.816C225.908 104.916 226.004 105.029 226.12 105.157C226.236 105.287 226.394 105.4 226.595 105.495C226.799 105.592 227.065 105.64 227.394 105.64C227.835 105.64 228.198 105.534 228.485 105.321C228.771 105.108 228.914 104.774 228.914 104.319V103.211H228.843C228.782 103.311 228.694 103.434 228.58 103.581C228.469 103.725 228.308 103.854 228.098 103.968C227.889 104.079 227.607 104.134 227.252 104.134C226.812 104.134 226.417 104.03 226.066 103.822C225.718 103.614 225.442 103.311 225.239 102.913C225.038 102.515 224.937 102.032 224.937 101.464C224.937 100.905 225.035 100.419 225.232 100.005C225.428 99.5879 225.702 99.2659 226.052 99.0386C226.402 98.809 226.807 98.6942 227.267 98.6942C227.622 98.6942 227.903 98.7533 228.112 98.8717C228.322 98.9877 228.483 99.1203 228.595 99.2694C228.708 99.4162 228.796 99.537 228.857 99.6317H228.943V98.7652H229.752V104.376C229.752 104.845 229.646 105.226 229.433 105.519C229.222 105.815 228.938 106.032 228.58 106.169C228.225 106.309 227.83 106.379 227.394 106.379ZM227.366 103.382C227.702 103.382 227.986 103.305 228.218 103.151C228.45 102.997 228.627 102.776 228.747 102.487C228.868 102.198 228.929 101.852 228.929 101.45C228.929 101.057 228.869 100.71 228.751 100.409C228.633 100.109 228.457 99.8731 228.225 99.7027C227.993 99.5322 227.707 99.447 227.366 99.447C227.011 99.447 226.715 99.537 226.478 99.7169C226.244 99.8968 226.067 100.138 225.949 100.441C225.833 100.744 225.775 101.081 225.775 101.45C225.775 101.829 225.834 102.164 225.953 102.455C226.073 102.744 226.251 102.971 226.485 103.137C226.722 103.3 227.016 103.382 227.366 103.382ZM231.286 104.22V98.7652H232.125V104.22H231.286ZM231.713 97.8561C231.549 97.8561 231.408 97.8005 231.29 97.6892C231.174 97.5779 231.116 97.4442 231.116 97.2879C231.116 97.1317 231.174 96.9979 231.29 96.8866C231.408 96.7754 231.549 96.7197 231.713 96.7197C231.876 96.7197 232.016 96.7754 232.132 96.8866C232.25 96.9979 232.309 97.1317 232.309 97.2879C232.309 97.4442 232.25 97.5779 232.132 97.6892C232.016 97.8005 231.876 97.8561 231.713 97.8561ZM236.088 98.7652V99.4754H233.148V98.7652H236.088ZM234.029 104.22V98.0123C234.029 97.6998 234.102 97.4394 234.249 97.2311C234.396 97.0228 234.586 96.8665 234.821 96.7623C235.055 96.6582 235.302 96.6061 235.563 96.6061C235.769 96.6061 235.937 96.6227 236.067 96.6558C236.197 96.6889 236.294 96.7197 236.358 96.7481L236.117 97.4726C236.074 97.4584 236.015 97.4406 235.939 97.4193C235.866 97.398 235.769 97.3873 235.648 97.3873C235.371 97.3873 235.171 97.4572 235.048 97.5969C234.927 97.7365 234.867 97.9413 234.867 98.2112V104.22H234.029ZM240.076 104.22V98.7652H240.885V99.6175H240.956C241.07 99.3263 241.253 99.1002 241.507 98.9392C241.76 98.7758 242.064 98.6942 242.419 98.6942C242.779 98.6942 243.079 98.7758 243.318 98.9392C243.559 99.1002 243.747 99.3263 243.882 99.6175H243.939C244.079 99.3357 244.288 99.112 244.568 98.9463C244.847 98.7782 245.182 98.6942 245.573 98.6942C246.06 98.6942 246.459 98.8469 246.769 99.1523C247.08 99.4553 247.235 99.9276 247.235 100.569V104.22H246.397V100.569C246.397 100.167 246.286 99.8791 246.066 99.7062C245.846 99.5334 245.587 99.447 245.289 99.447C244.905 99.447 244.608 99.563 244.397 99.795C244.187 100.025 244.081 100.316 244.081 100.669V104.22H243.229V100.484C243.229 100.174 243.128 99.924 242.927 99.7346C242.726 99.5429 242.467 99.447 242.149 99.447C241.932 99.447 241.728 99.505 241.539 99.621C241.352 99.737 241.2 99.898 241.084 100.104C240.97 100.308 240.914 100.543 240.914 100.811V104.22H240.076ZM250.372 104.348C250.026 104.348 249.713 104.282 249.431 104.152C249.149 104.02 248.926 103.829 248.76 103.581C248.594 103.33 248.511 103.027 248.511 102.671C248.511 102.359 248.573 102.106 248.696 101.911C248.819 101.715 248.984 101.561 249.19 101.45C249.395 101.339 249.623 101.256 249.871 101.201C250.122 101.144 250.374 101.099 250.628 101.066C250.959 101.024 251.228 100.992 251.434 100.97C251.642 100.947 251.794 100.908 251.888 100.853C251.985 100.799 252.034 100.704 252.034 100.569V100.541C252.034 100.19 251.938 99.9181 251.746 99.724C251.557 99.5299 251.269 99.4328 250.883 99.4328C250.483 99.4328 250.17 99.5204 249.942 99.6956C249.715 99.8708 249.555 100.058 249.463 100.257L248.667 99.9726C248.81 99.6411 248.999 99.3831 249.236 99.1984C249.475 99.0114 249.735 98.8812 250.017 98.8078C250.301 98.732 250.58 98.6942 250.855 98.6942C251.03 98.6942 251.231 98.7155 251.459 98.7581C251.688 98.7983 251.91 98.8824 252.123 99.0102C252.338 99.1381 252.517 99.331 252.659 99.589C252.801 99.8471 252.872 100.193 252.872 100.626V104.22H252.034V103.481H251.991C251.935 103.599 251.84 103.726 251.707 103.861C251.575 103.996 251.398 104.111 251.178 104.206C250.958 104.3 250.689 104.348 250.372 104.348ZM250.5 103.595C250.831 103.595 251.111 103.53 251.338 103.399C251.568 103.269 251.74 103.101 251.856 102.895C251.975 102.689 252.034 102.473 252.034 102.245V101.478C251.998 101.521 251.92 101.56 251.8 101.595C251.681 101.629 251.544 101.658 251.388 101.684C251.234 101.708 251.083 101.729 250.937 101.748C250.792 101.765 250.675 101.779 250.585 101.791C250.367 101.819 250.164 101.865 249.974 101.929C249.787 101.991 249.636 102.084 249.52 102.21C249.406 102.333 249.349 102.501 249.349 102.714C249.349 103.005 249.457 103.225 249.672 103.375C249.89 103.521 250.166 103.595 250.5 103.595ZM255.027 98.7652L256.334 100.995L257.64 98.7652H258.606L256.845 101.492L258.606 104.22H257.64L256.334 102.103L255.027 104.22H254.061L255.794 101.492L254.061 98.7652H255.027ZM259.802 104.22V98.7652H260.64V104.22H259.802ZM260.228 97.8561C260.065 97.8561 259.924 97.8005 259.806 97.6892C259.69 97.5779 259.632 97.4442 259.632 97.2879C259.632 97.1317 259.69 96.9979 259.806 96.8866C259.924 96.7754 260.065 96.7197 260.228 96.7197C260.392 96.7197 260.531 96.7754 260.647 96.8866C260.766 96.9979 260.825 97.1317 260.825 97.2879C260.825 97.4442 260.766 97.5779 260.647 97.6892C260.531 97.8005 260.392 97.8561 260.228 97.8561ZM262.175 104.22V98.7652H262.985V99.6175H263.056C263.169 99.3263 263.353 99.1002 263.606 98.9392C263.86 98.7758 264.164 98.6942 264.519 98.6942C264.879 98.6942 265.178 98.7758 265.417 98.9392C265.659 99.1002 265.847 99.3263 265.982 99.6175H266.039C266.178 99.3357 266.388 99.112 266.667 98.9463C266.947 98.7782 267.282 98.6942 267.672 98.6942C268.16 98.6942 268.559 98.8469 268.869 99.1523C269.179 99.4553 269.334 99.9276 269.334 100.569V104.22H268.496V100.569C268.496 100.167 268.386 99.8791 268.166 99.7062C267.946 99.5334 267.686 99.447 267.388 99.447C267.005 99.447 266.708 99.563 266.497 99.795C266.286 100.025 266.181 100.316 266.181 100.669V104.22H265.329V100.484C265.329 100.174 265.228 99.924 265.027 99.7346C264.825 99.5429 264.566 99.447 264.249 99.447C264.031 99.447 263.828 99.505 263.638 99.621C263.451 99.737 263.3 99.898 263.184 100.104C263.07 100.308 263.013 100.543 263.013 100.811V104.22H262.175ZM274.304 101.99V98.7652H275.142V104.22H274.304V103.296H274.247C274.119 103.573 273.921 103.809 273.651 104.003C273.381 104.195 273.04 104.291 272.628 104.291C272.287 104.291 271.984 104.216 271.719 104.067C271.454 103.916 271.245 103.688 271.094 103.385C270.942 103.08 270.867 102.695 270.867 102.231V98.7652H271.705V102.174C271.705 102.572 271.816 102.889 272.038 103.126C272.263 103.363 272.55 103.481 272.898 103.481C273.106 103.481 273.318 103.428 273.533 103.321C273.751 103.215 273.934 103.051 274.08 102.831C274.229 102.611 274.304 102.331 274.304 101.99ZM276.677 104.22V98.7652H277.487V99.6175H277.558C277.671 99.3263 277.855 99.1002 278.108 98.9392C278.362 98.7758 278.666 98.6942 279.021 98.6942C279.381 98.6942 279.68 98.7758 279.919 98.9392C280.161 99.1002 280.349 99.3263 280.484 99.6175H280.541C280.68 99.3357 280.89 99.112 281.169 98.9463C281.449 98.7782 281.784 98.6942 282.174 98.6942C282.662 98.6942 283.061 98.8469 283.371 99.1523C283.681 99.4553 283.836 99.9276 283.836 100.569V104.22H282.998V100.569C282.998 100.167 282.888 99.8791 282.668 99.7062C282.448 99.5334 282.188 99.447 281.89 99.447C281.507 99.447 281.21 99.563 280.999 99.795C280.788 100.025 280.683 100.316 280.683 100.669V104.22H279.83V100.484C279.83 100.174 279.73 99.924 279.529 99.7346C279.327 99.5429 279.068 99.447 278.751 99.447C278.533 99.447 278.33 99.505 278.14 99.621C277.953 99.737 277.802 99.898 277.686 100.104C277.572 100.308 277.515 100.543 277.515 100.811V104.22H276.677ZM290.482 96.8476C290.78 96.8499 291.079 96.9068 291.377 97.018C291.675 97.1293 291.948 97.3139 292.194 97.572C292.44 97.8277 292.638 98.1769 292.787 98.6196C292.936 99.0623 293.011 99.6175 293.011 100.285C293.011 100.931 292.949 101.505 292.826 102.007C292.705 102.507 292.53 102.928 292.3 103.272C292.073 103.615 291.796 103.875 291.469 104.053C291.145 104.23 290.778 104.319 290.368 104.319C289.961 104.319 289.598 104.239 289.278 104.078C288.961 103.914 288.701 103.688 288.497 103.399C288.296 103.108 288.167 102.771 288.11 102.387H288.976C289.055 102.721 289.21 102.997 289.442 103.215C289.676 103.43 289.985 103.538 290.368 103.538C290.93 103.538 291.372 103.293 291.697 102.803C292.023 102.313 292.187 101.62 292.187 100.725H292.13C291.997 100.924 291.84 101.096 291.658 101.24C291.475 101.385 291.273 101.496 291.05 101.574C290.828 101.652 290.591 101.691 290.34 101.691C289.923 101.691 289.541 101.588 289.193 101.382C288.847 101.174 288.57 100.889 288.362 100.527C288.156 100.162 288.053 99.7453 288.053 99.2765C288.053 98.8315 288.153 98.4243 288.351 98.055C288.553 97.6833 288.834 97.3873 289.197 97.1672C289.561 96.947 289.99 96.8405 290.482 96.8476ZM290.482 97.6288C290.184 97.6288 289.915 97.7034 289.676 97.8525C289.439 97.9993 289.251 98.1982 289.111 98.4491C288.974 98.6977 288.905 98.9735 288.905 99.2765C288.905 99.5796 288.972 99.8554 289.104 100.104C289.239 100.35 289.423 100.547 289.655 100.693C289.889 100.838 290.155 100.91 290.454 100.91C290.679 100.91 290.888 100.866 291.082 100.779C291.276 100.689 291.446 100.567 291.59 100.413C291.737 100.257 291.852 100.08 291.935 99.8838C292.017 99.6849 292.059 99.4778 292.059 99.2623C292.059 98.9782 291.99 98.7119 291.853 98.4633C291.718 98.2148 291.531 98.0135 291.292 97.8596C291.055 97.7058 290.785 97.6288 290.482 97.6288ZM296.779 104.319C296.244 104.319 295.788 104.174 295.412 103.882C295.036 103.589 294.748 103.164 294.549 102.608C294.35 102.049 294.251 101.374 294.251 100.583C294.251 99.7974 294.35 99.1262 294.549 98.5699C294.75 98.0112 295.039 97.585 295.416 97.2915C295.794 96.9955 296.249 96.8476 296.779 96.8476C297.309 96.8476 297.763 96.9955 298.139 97.2915C298.518 97.585 298.807 98.0112 299.006 98.5699C299.207 99.1262 299.308 99.7974 299.308 100.583C299.308 101.374 299.208 102.049 299.009 102.608C298.81 103.164 298.523 103.589 298.146 103.882C297.77 104.174 297.314 104.319 296.779 104.319ZM296.779 103.538C297.309 103.538 297.721 103.282 298.015 102.771C298.309 102.259 298.455 101.53 298.455 100.583C298.455 99.9536 298.388 99.4174 298.253 98.9747C298.12 98.532 297.929 98.1946 297.678 97.9626C297.429 97.7306 297.13 97.6146 296.779 97.6146C296.254 97.6146 295.843 97.8738 295.547 98.3923C295.251 98.9084 295.103 99.6388 295.103 100.583C295.103 101.213 295.169 101.748 295.302 102.188C295.434 102.629 295.625 102.964 295.874 103.193C296.125 103.423 296.426 103.538 296.779 103.538ZM303.029 104.319C302.494 104.319 302.038 104.174 301.662 103.882C301.286 103.589 300.998 103.164 300.799 102.608C300.6 102.049 300.501 101.374 300.501 100.583C300.501 99.7974 300.6 99.1262 300.799 98.5699C301 98.0112 301.289 97.585 301.666 97.2915C302.044 96.9955 302.499 96.8476 303.029 96.8476C303.559 96.8476 304.013 96.9955 304.389 97.2915C304.768 97.585 305.057 98.0112 305.256 98.5699C305.457 99.1262 305.558 99.7974 305.558 100.583C305.558 101.374 305.458 102.049 305.259 102.608C305.06 103.164 304.773 103.589 304.396 103.882C304.02 104.174 303.564 104.319 303.029 104.319ZM303.029 103.538C303.559 103.538 303.971 103.282 304.265 102.771C304.559 102.259 304.705 101.53 304.705 100.583C304.705 99.9536 304.638 99.4174 304.503 98.9747C304.37 98.532 304.179 98.1946 303.928 97.9626C303.679 97.7306 303.38 97.6146 303.029 97.6146C302.504 97.6146 302.093 97.8738 301.797 98.3923C301.501 98.9084 301.353 99.6388 301.353 100.583C301.353 101.213 301.419 101.748 301.552 102.188C301.684 102.629 301.875 102.964 302.124 103.193C302.375 103.423 302.676 103.538 303.029 103.538ZM311.183 102.913L307.177 98.9072L307.717 98.3675L311.722 102.373L311.183 102.913ZM307.717 102.913L307.177 102.373L311.183 98.3675L311.722 98.9072L307.717 102.913ZM313.328 102.728V102.004L316.524 96.947H317.05V98.0692H316.695L314.28 101.89V101.947H318.584V102.728H313.328ZM316.752 104.22V102.508V102.171V96.947H317.59V104.22H316.752ZM322.287 104.319C321.752 104.319 321.296 104.174 320.92 103.882C320.543 103.589 320.256 103.164 320.057 102.608C319.858 102.049 319.759 101.374 319.759 100.583C319.759 99.7974 319.858 99.1262 320.057 98.5699C320.258 98.0112 320.547 97.585 320.923 97.2915C321.302 96.9955 321.757 96.8476 322.287 96.8476C322.817 96.8476 323.271 96.9955 323.647 97.2915C324.026 97.585 324.315 98.0112 324.514 98.5699C324.715 99.1262 324.815 99.7974 324.815 100.583C324.815 101.374 324.716 102.049 324.517 102.608C324.318 103.164 324.031 103.589 323.654 103.882C323.278 104.174 322.822 104.319 322.287 104.319ZM322.287 103.538C322.817 103.538 323.229 103.282 323.523 102.771C323.816 102.259 323.963 101.53 323.963 100.583C323.963 99.9536 323.896 99.4174 323.761 98.9747C323.628 98.532 323.436 98.1946 323.185 97.9626C322.937 97.7306 322.637 97.6146 322.287 97.6146C321.761 97.6146 321.351 97.8738 321.055 98.3923C320.759 98.9084 320.611 99.6388 320.611 100.583C320.611 101.213 320.677 101.748 320.81 102.188C320.942 102.629 321.133 102.964 321.381 103.193C321.632 103.423 321.934 103.538 322.287 103.538ZM328.537 104.319C328.002 104.319 327.546 104.174 327.17 103.882C326.793 103.589 326.506 103.164 326.307 102.608C326.108 102.049 326.009 101.374 326.009 100.583C326.009 99.7974 326.108 99.1262 326.307 98.5699C326.508 98.0112 326.797 97.585 327.173 97.2915C327.552 96.9955 328.007 96.8476 328.537 96.8476C329.067 96.8476 329.521 96.9955 329.897 97.2915C330.276 97.585 330.565 98.0112 330.764 98.5699C330.965 99.1262 331.065 99.7974 331.065 100.583C331.065 101.374 330.966 102.049 330.767 102.608C330.568 103.164 330.281 103.589 329.904 103.882C329.528 104.174 329.072 104.319 328.537 104.319ZM328.537 103.538C329.067 103.538 329.479 103.282 329.773 102.771C330.066 102.259 330.213 101.53 330.213 100.583C330.213 99.9536 330.146 99.4174 330.011 98.9747C329.878 98.532 329.686 98.1946 329.435 97.9626C329.187 97.7306 328.887 97.6146 328.537 97.6146C328.011 97.6146 327.601 97.8738 327.305 98.3923C327.009 98.9084 326.861 99.6388 326.861 100.583C326.861 101.213 326.927 101.748 327.06 102.188C327.192 102.629 327.383 102.964 327.631 103.193C327.882 103.423 328.184 103.538 328.537 103.538ZM334.219 100.583C334.219 101.478 334.102 102.302 333.867 103.055C333.635 103.805 333.303 104.497 332.869 105.129H332.131C332.301 104.894 332.46 104.606 332.607 104.262C332.756 103.921 332.886 103.547 332.997 103.14C333.108 102.731 333.195 102.308 333.256 101.872C333.32 101.434 333.352 101.005 333.352 100.583C333.352 100.02 333.298 99.4482 333.189 98.8682C333.08 98.2881 332.933 97.7496 332.749 97.2524C332.564 96.7552 332.358 96.3504 332.131 96.0379H332.869C333.303 96.67 333.635 97.3625 333.867 98.1153C334.102 98.8658 334.219 99.6885 334.219 100.583Z" fill="#6C737F"/>
</g>
<defs>
<clipPath id="clip0_840_12693">
<rect width="467" height="128" fill="white"/>
</clipPath>
<clipPath id="clip1_840_12693">
<rect width="16.4957" height="16.4957" fill="white" transform="translate(224.727 31.1099)"/>
</clipPath>
</defs>
</svg>
